<svg width="678" height="767" viewBox="0 0 678 767" fill="none" xmlns="http://www.w3.org/2000/svg">
<path d="M338.986 735.829C518.467 735.829 663.965 640.797 663.965 523.57C663.965 406.342 518.467 311.31 338.986 311.31C159.505 311.31 14.0073 406.342 14.0073 523.57C14.0073 640.797 159.505 735.829 338.986 735.829Z" fill="#F5F5F5"/>
<path d="M568.042 552.378L637.944 506.726C646.405 501.204 646.405 492.245 637.944 486.784L520.189 409.869C511.727 404.347 498.018 404.347 489.57 409.869L419.668 455.521C411.221 461.044 411.221 470.002 419.668 475.463L537.437 552.378C545.885 557.9 559.594 557.9 568.042 552.378Z" fill="#E0E0E0"/>
<path d="M381.795 702.771C421.405 702.771 453.514 681.797 453.514 655.923C453.514 630.049 421.405 609.075 381.795 609.075C342.186 609.075 310.077 630.049 310.077 655.923C310.077 681.797 342.186 702.771 381.795 702.771Z" fill="#E0E0E0"/>
<path d="M119.762 637.623L36.0425 582.92C32.883 580.849 32.883 577.505 36.0425 575.449L213.57 459.479C215.342 458.465 217.3 457.937 219.286 457.937C221.271 457.937 223.229 458.465 225.001 459.479L308.721 514.212C311.88 516.283 311.88 519.627 308.721 521.683L131.193 637.623C129.421 638.636 127.463 639.164 125.477 639.164C123.492 639.164 121.534 638.636 119.762 637.623Z" fill="#E0E0E0"/>
<path d="M468.986 117.581L477.122 122.904C477.079 122.497 477.057 122.087 477.054 121.677V119.023C477.054 114.268 479.997 112.35 483.631 114.713C485.193 115.805 486.53 117.264 487.55 118.992C488.146 113.01 492.282 110.801 497.313 114.084C500.179 116.194 502.563 119.04 504.272 122.391C505.98 125.742 506.964 129.503 507.144 133.366V137.354C507.181 138.941 506.893 140.516 506.303 141.956L513.083 146.374C514.141 147.162 515.022 148.219 515.655 149.46C516.288 150.701 516.657 152.092 516.731 153.523C516.731 156.161 515.104 157.235 513.083 155.916L468.986 127.123C467.928 126.335 467.047 125.278 466.414 124.037C465.781 122.796 465.413 121.405 465.338 119.974C465.338 117.336 466.979 116.277 468.986 117.581Z" fill="#E07A5F"/>
<path d="M522.792 93.1291L527.281 95.108V83.8945C527.281 75.0279 533.532 72.8957 540.325 77.3289C547.105 81.7775 552.624 92.5616 552.624 101.428V103.054C553.578 102.716 554.587 102.63 555.575 102.802C556.562 102.975 557.501 103.403 558.319 104.051C560.897 105.949 563.042 108.507 564.581 111.519C566.12 114.531 567.008 117.912 567.174 121.385V122.122L573.425 126.202C575.123 127.451 576.536 129.135 577.549 131.118C578.563 133.102 579.147 135.328 579.256 137.615C579.256 141.818 576.653 143.521 573.425 141.419L522.792 108.346C521.096 107.096 519.684 105.411 518.671 103.428C517.658 101.445 517.072 99.2203 516.961 96.9335C516.961 92.7303 519.579 91.0276 522.792 93.1291Z" fill="#E07A5F"/>
<path d="M111.301 549.172C111.301 549.172 118.081 509.871 109.741 474.42C101.402 438.969 83.5704 412.37 62.7287 402.767C41.8869 393.164 18.3468 409.21 36.9647 432.726C55.5825 456.242 91.8149 486.416 94.4591 550.353L111.301 549.172Z" fill="#81B29A"/>
<g opacity="0.15">
<path opacity="0.15" d="M111.301 549.172C111.301 549.172 118.081 509.871 109.741 474.42C101.402 438.969 83.5704 412.37 62.7287 402.767C41.8869 393.164 18.3468 409.21 36.9647 432.726C55.5825 456.242 91.8149 486.416 94.4591 550.353L111.301 549.172Z" fill="black"/>
</g>
<path d="M107.789 537.115H108.046C108.203 537.101 108.356 537.053 108.496 536.972C108.637 536.891 108.761 536.78 108.863 536.645C108.965 536.509 109.043 536.352 109.091 536.183C109.139 536.013 109.158 535.835 109.145 535.657C104.249 464.679 68.6544 422.97 50.5247 410.836C50.2513 410.653 49.9249 410.6 49.6172 410.689C49.3095 410.778 49.0457 411.002 48.8839 411.311C48.7221 411.621 48.6754 411.99 48.7543 412.338C48.8331 412.686 49.0309 412.984 49.3043 413.168C67.0679 425.056 101.931 465.999 106.758 535.888C106.78 536.194 106.895 536.483 107.082 536.707C107.27 536.93 107.519 537.074 107.789 537.115Z" fill="white"/>
<path d="M27.2693 505.56C27.8482 509.046 29.3413 512.253 31.5542 514.764C34.4968 518.201 38.1851 520.747 40.9649 524.352C41.6947 525.216 42.2256 526.269 42.5107 527.42C43.1209 530.488 40.5852 533.157 38.9851 535.796C37.317 538.71 36.6043 542.193 36.971 545.64C37.3376 549.087 38.7604 552.28 40.992 554.664C45.5075 559.266 52.0705 559.526 57.9962 560.8C62.5609 561.743 66.6245 564.652 69.3324 568.915C72.3292 573.885 72.1664 580.542 73.6174 586.157C74.7165 590.103 76.5584 593.733 79.0163 596.797C81.4742 599.861 84.4897 602.286 87.8554 603.905C91.8435 605.808 96.0905 606.924 100.412 607.203C103.559 607.635 106.743 606.863 109.456 605.01C114.135 601.313 114.623 593.842 114.677 587.399L114.88 558.376C114.88 551.856 114.88 545.153 113.524 538.802C112.562 534.645 110.379 531.286 109.172 527.389C107.219 521.069 107.3 512.647 101.7 508.797C93.754 503.336 83.2314 506.343 74.5801 502.431C71.7202 500.923 68.9643 499.174 66.3356 497.2C60.0302 492.966 52.7756 490.128 45.4668 490.496C39.3653 490.706 33.5566 493.504 29.1948 498.335C28.3919 499.282 27.7988 500.43 27.4641 501.686C27.1294 502.942 27.0626 504.27 27.2693 505.56Z" fill="#81B29A"/>
<path d="M109.186 596.726H109.267C109.387 596.728 109.507 596.703 109.619 596.652C109.731 596.601 109.832 596.526 109.918 596.43C110.004 596.335 110.072 596.221 110.119 596.095C110.165 595.969 110.189 595.834 110.189 595.698C110.948 530.534 56.6405 503.842 43.1483 500.728C42.911 500.673 42.664 500.727 42.4619 500.878C42.2597 501.029 42.1188 501.265 42.0703 501.534C42.0217 501.802 42.0695 502.081 42.203 502.31C42.3365 502.539 42.5448 502.698 42.7822 502.753C55.9761 505.821 109.091 531.899 108.358 595.683C108.357 595.942 108.441 596.192 108.594 596.385C108.747 596.578 108.958 596.699 109.186 596.726Z" fill="white"/>
<path d="M52.0297 539.876C52.2045 539.902 52.3819 539.859 52.5314 539.753C52.6942 539.646 70.051 528.8 91.6656 539.753C91.8684 539.825 92.0876 539.811 92.2815 539.712C92.4754 539.613 92.6305 539.438 92.7175 539.218C92.8044 538.999 92.8172 538.751 92.7533 538.521C92.6893 538.292 92.5532 538.097 92.3707 537.974C69.9154 526.653 51.8534 537.974 51.6907 538.112C51.4916 538.241 51.3456 538.453 51.2847 538.703C51.2237 538.953 51.2527 539.22 51.3653 539.446C51.4381 539.572 51.5363 539.677 51.6518 539.752C51.7673 539.826 51.8968 539.869 52.0297 539.876Z" fill="white"/>
<path d="M547.729 526.607C547.395 523.263 546.37 520.054 544.737 517.24C543.105 514.427 540.911 512.086 538.332 510.408C535.769 508.874 533.546 509.012 532.054 510.3L526.467 514.396L539.905 537.176L545.438 533.096C546.984 531.991 547.892 529.752 547.729 526.607Z" fill="#455A64"/>
<path d="M532.555 514.688C535.136 516.362 537.331 518.702 538.961 521.517C540.592 524.331 541.612 527.542 541.939 530.887C542.251 537.023 538.549 539.799 533.667 537.023C531.091 535.343 528.9 533.002 527.27 530.188C525.64 527.374 524.617 524.167 524.284 520.824C523.986 514.642 527.687 511.896 532.555 514.688Z" fill="#37474F"/>
<path d="M530.196 524.137C530.074 521.729 531.308 520.548 532.908 521.483C533.834 522.146 534.607 523.047 535.163 524.114C535.72 525.181 536.044 526.383 536.108 527.619C536.23 530.028 534.997 531.209 533.396 530.273C532.473 529.608 531.702 528.706 531.146 527.639C530.59 526.573 530.264 525.373 530.196 524.137Z" fill="#263238"/>
<path d="M542.061 503.75C542.061 503.75 542.603 514.795 538.156 518.983C537.315 519.781 536.407 520.348 535.891 520.9C534.752 522.097 535.647 524.091 537.125 524.873C539.281 526.009 550.522 521.805 554.834 511.067L542.061 503.75Z" fill="#81B29A"/>
<path opacity="0.6" d="M542.061 503.75C542.061 503.75 542.603 514.795 538.156 518.983C537.315 519.781 536.407 520.348 535.891 520.9C534.752 522.097 535.647 524.091 537.125 524.873C539.281 526.009 550.522 521.805 554.834 511.067L542.061 503.75Z" fill="black"/>
<path d="M537.776 506.91C537.776 506.91 538.319 517.955 533.871 522.143C533.03 522.941 532.122 523.508 531.607 524.06C530.468 525.257 531.363 527.251 532.841 528.033C534.997 529.169 546.238 524.965 550.55 514.227L537.776 506.91Z" fill="#81B29A"/>
<path opacity="0.4" d="M537.776 506.91C537.776 506.91 538.319 517.955 533.871 522.143C533.03 522.941 532.122 523.508 531.607 524.06C530.468 525.257 531.363 527.251 532.841 528.033C534.997 529.169 546.238 524.965 550.55 514.227L537.776 506.91Z" fill="black"/>
<path d="M533.057 524.781C533.305 524.938 533.516 525.159 533.674 525.425C533.832 525.692 533.932 525.997 533.966 526.315C533.966 526.914 533.641 527.174 533.166 526.898C532.92 526.741 532.711 526.519 532.556 526.253C532.4 525.986 532.303 525.682 532.271 525.364C532.244 524.766 532.596 524.505 533.057 524.781Z" fill="#263238"/>
<path d="M608.519 480.74C608.186 477.397 607.163 474.19 605.533 471.376C603.903 468.562 601.712 466.221 599.135 464.541C596.573 463.084 594.349 463.161 592.844 464.434L587.271 468.53L600.708 491.309L606.227 487.229C607.773 486.125 608.668 483.885 608.519 480.74Z" fill="#455A64"/>
<path d="M593.345 468.821C595.921 470.501 598.113 472.842 599.743 475.656C601.372 478.47 602.395 481.677 602.728 485.02C603.04 491.156 599.339 493.933 594.457 491.156C591.879 489.475 589.686 487.131 588.056 484.314C586.426 481.498 585.405 478.287 585.073 474.942C584.761 468.775 588.504 466.045 593.345 468.821Z" fill="#37474F"/>
<path d="M590.918 478.286C590.796 475.862 592.03 474.681 593.63 475.617C594.552 476.283 595.323 477.185 595.879 478.252C596.435 479.318 596.761 480.517 596.83 481.753C596.952 484.161 595.718 485.358 594.118 484.407C593.195 483.746 592.423 482.846 591.866 481.782C591.31 480.718 590.985 479.52 590.918 478.286Z" fill="#263238"/>
<path d="M602.145 459.51C602.145 459.51 603.393 468.928 598.945 473.132C598.105 473.914 597.196 474.482 596.681 475.034C595.542 476.23 596.437 478.24 597.915 479.007C600.071 480.157 610.607 477.596 614.919 466.735L602.145 459.51Z" fill="#81B29A"/>
<path opacity="0.6" d="M602.145 459.51C602.145 459.51 603.393 468.928 598.945 473.132C598.105 473.914 597.196 474.482 596.681 475.034C595.542 476.23 596.437 478.24 597.915 479.007C600.071 480.157 610.607 477.596 614.919 466.735L602.145 459.51Z" fill="black"/>
<path d="M598.566 461.059C598.566 461.059 599.108 472.089 594.66 476.292C593.819 477.074 592.911 477.642 592.382 478.194C591.257 479.39 592.152 481.4 593.63 482.182C595.786 483.317 607.027 479.114 611.339 468.376L598.566 461.059Z" fill="#81B29A"/>
<path opacity="0.4" d="M598.566 461.059C598.566 461.059 599.108 472.089 594.66 476.292C593.819 477.074 592.911 477.642 592.382 478.194C591.257 479.39 592.152 481.4 593.63 482.182C595.786 483.317 607.027 479.114 611.339 468.376L598.566 461.059Z" fill="black"/>
<path d="M593.847 478.915C594.093 479.072 594.303 479.292 594.458 479.559C594.614 479.826 594.711 480.131 594.742 480.449C594.742 481.047 594.416 481.308 593.955 481.047C593.71 480.888 593.502 480.667 593.346 480.401C593.191 480.134 593.093 479.83 593.06 479.513C593.02 478.915 593.386 478.608 593.847 478.915Z" fill="#263238"/>
<path d="M487.631 492.721C487.3 489.375 486.278 486.165 484.648 483.348C483.018 480.532 480.826 478.188 478.248 476.506C475.699 475.049 473.475 475.126 471.97 476.414L466.383 480.51L479.821 503.29L485.353 499.194C486.899 498.105 487.794 495.865 487.631 492.721Z" fill="#455A64"/>
<path d="M472.458 480.802C475.042 482.475 477.239 484.816 478.87 487.634C480.501 490.452 481.519 493.667 481.841 497.016C482.153 503.152 478.451 505.929 473.583 503.152C471 501.481 468.804 499.142 467.173 496.326C465.542 493.511 464.523 490.299 464.199 486.953C463.888 480.756 467.59 478.01 472.458 480.802Z" fill="#37474F"/>
<path d="M470.031 490.251C469.909 487.843 471.156 486.661 472.743 487.597C473.67 488.259 474.445 489.16 475.004 490.227C475.562 491.294 475.889 492.495 475.956 493.733C476.078 496.142 474.831 497.323 473.244 496.387C472.319 495.724 471.545 494.822 470.986 493.756C470.428 492.689 470.1 491.488 470.031 490.251Z" fill="#263238"/>
<path d="M481.963 469.864C481.963 469.864 482.519 480.894 478.058 485.097C477.217 485.894 476.322 486.462 475.794 487.014C474.668 488.211 475.549 490.205 477.041 490.987C479.197 492.123 490.438 487.919 494.75 477.181L481.963 469.864Z" fill="#81B29A"/>
<path opacity="0.6" d="M481.963 469.864C481.963 469.864 482.519 480.894 478.058 485.097C477.217 485.894 476.322 486.462 475.794 487.014C474.668 488.211 475.549 490.205 477.041 490.987C479.197 492.123 490.438 487.919 494.75 477.181L481.963 469.864Z" fill="black"/>
<path d="M477.678 473.024C477.678 473.024 478.234 484.069 473.773 488.257C472.932 489.054 472.024 489.622 471.508 490.174C470.383 491.371 471.264 493.365 472.756 494.147C474.912 495.283 486.153 491.079 490.465 480.341L477.678 473.024Z" fill="#81B29A"/>
<path opacity="0.4" d="M477.678 473.024C477.678 473.024 478.234 484.069 473.773 488.257C472.932 489.054 472.024 489.622 471.508 490.174C470.383 491.371 471.264 493.365 472.756 494.147C474.912 495.283 486.153 491.079 490.465 480.341L477.678 473.024Z" fill="black"/>
<path d="M472.973 490.88C473.218 491.038 473.428 491.259 473.583 491.525C473.739 491.792 473.836 492.097 473.868 492.414C473.868 493.012 473.542 493.273 473.068 492.997C472.822 492.839 472.613 492.618 472.458 492.351C472.302 492.085 472.204 491.78 472.173 491.463C472.146 490.88 472.498 490.619 472.973 490.88Z" fill="#263238"/>
<path d="M550.848 445.872C550.521 442.527 549.501 439.317 547.87 436.502C546.24 433.687 544.045 431.348 541.465 429.673C538.902 428.139 536.678 428.293 535.186 429.566L529.6 433.662L543.038 456.442L548.57 452.361C550.116 451.257 551.011 449.017 550.848 445.872Z" fill="#455A64"/>
<path d="M535.62 433.953C538.221 435.613 540.437 437.947 542.087 440.762C543.737 443.578 544.774 446.796 545.112 450.152C545.424 456.288 541.722 459.065 536.841 456.288C534.263 454.607 532.07 452.263 530.44 449.447C528.81 446.63 527.789 443.419 527.457 440.074C527.105 433.923 530.807 431.177 535.62 433.953Z" fill="#37474F"/>
<path d="M533.248 443.418C533.125 441.01 534.373 439.813 535.959 440.749C536.884 441.414 537.656 442.316 538.215 443.382C538.773 444.448 539.101 445.648 539.173 446.885C539.282 449.293 538.048 450.49 536.393 449.539C535.482 448.868 534.723 447.965 534.176 446.902C533.63 445.839 533.312 444.646 533.248 443.418Z" fill="#263238"/>
<path d="M545.18 423.031C545.18 423.031 545.723 434.061 541.275 438.264C540.434 439.046 539.526 439.614 539.01 440.166C537.871 441.362 538.766 443.372 540.244 444.154C542.414 445.29 553.655 441.086 557.954 430.348L545.18 423.031Z" fill="#81B29A"/>
<path opacity="0.6" d="M545.18 423.031C545.18 423.031 545.723 434.061 541.275 438.264C540.434 439.046 539.526 439.614 539.01 440.166C537.871 441.362 538.766 443.372 540.244 444.154C542.414 445.29 553.655 441.086 557.954 430.348L545.18 423.031Z" fill="black"/>
<path d="M540.895 426.191C540.895 426.191 541.437 437.221 536.99 441.424C536.149 442.206 535.241 442.774 534.725 443.326C533.586 444.523 534.481 446.532 535.959 447.314C538.115 448.45 549.356 444.246 553.669 433.508L540.895 426.191Z" fill="#81B29A"/>
<path opacity="0.4" d="M540.895 426.191C540.895 426.191 541.437 437.221 536.99 441.424C536.149 442.206 535.241 442.774 534.725 443.326C533.586 444.523 534.481 446.532 535.959 447.314C538.115 448.45 549.356 444.246 553.669 433.508L540.895 426.191Z" fill="black"/>
<path d="M536.176 444.047C536.424 444.204 536.635 444.425 536.793 444.691C536.95 444.958 537.051 445.262 537.085 445.581C537.085 446.179 536.759 446.44 536.285 446.179C536.042 446.018 535.835 445.796 535.68 445.53C535.525 445.264 535.425 444.961 535.39 444.645C535.363 444.047 535.715 443.786 536.176 444.047Z" fill="#263238"/>
<path d="M569.1 521.453C565.996 521.72 562.883 521.087 560.055 519.612L474.058 470.938C469.217 468.177 463.78 461.013 463.441 454.233L458.898 363.297L463.373 363.021L467.902 454.064C468.132 458.666 472.404 464.449 476.038 466.535L562.035 515.148C564.188 516.17 566.519 516.623 568.85 516.471C571.182 516.32 573.451 515.568 575.487 514.273L623.164 483.057C624.438 482.106 625.171 480.97 625.116 479.989C625.062 479.007 624.276 478.071 622.92 477.289L537.071 420.914C532.244 418.168 526.82 410.989 526.481 404.194L523.24 342.082L527.701 341.806L530.969 403.948C531.2 408.55 535.458 414.349 539.105 416.42L624.94 472.794C627.815 474.436 629.469 476.89 629.618 479.728C629.606 481.273 629.232 482.787 628.534 484.116C627.836 485.444 626.839 486.54 625.645 487.29L577.968 518.492C575.284 520.318 572.231 521.337 569.1 521.453Z" fill="#81B29A"/>
<g opacity="0.5">
<path opacity="0.5" d="M569.1 521.453C565.996 521.72 562.883 521.087 560.055 519.612L474.058 470.938C469.217 468.177 463.78 461.013 463.441 454.233L458.898 363.297L463.373 363.021L467.902 454.064C468.132 458.666 472.404 464.449 476.038 466.535L562.035 515.148C564.188 516.17 566.519 516.623 568.85 516.471C571.182 516.32 573.451 515.568 575.487 514.273L623.164 483.057C624.438 482.106 625.171 480.97 625.116 479.989C625.062 479.007 624.276 478.071 622.92 477.289L537.071 420.914C532.244 418.168 526.82 410.989 526.481 404.194L523.24 342.082L527.701 341.806L530.969 403.948C531.2 408.55 535.458 414.349 539.105 416.42L624.94 472.794C627.815 474.436 629.469 476.89 629.618 479.728C629.606 481.273 629.232 482.787 628.534 484.116C627.836 485.444 626.839 486.54 625.645 487.29L577.968 518.492C575.284 520.318 572.231 521.337 569.1 521.453Z" fill="black"/>
</g>
<path d="M445.69 271.518C444.933 268.226 445.074 264.753 446.092 261.553C447.111 258.353 448.961 255.575 451.399 253.586L499.985 217.322C504.825 213.732 510.127 216.217 511.836 222.491L519.226 249.628L515.646 252.282L508.5 227.032C508.334 226.299 508.01 225.623 507.557 225.065C507.104 224.507 506.537 224.085 505.905 223.834C505.274 223.584 504.597 223.514 503.935 223.63C503.274 223.746 502.648 224.045 502.113 224.501L454.938 259.89C453.371 261.181 452.178 262.97 451.512 265.03C450.846 267.089 450.736 269.326 451.196 271.457L457.433 295.494L453.135 298.685L445.69 271.518Z" fill="#81B29A"/>
<g opacity="0.5">
<path opacity="0.5" d="M445.69 271.518C444.933 268.226 445.074 264.753 446.092 261.553C447.111 258.353 448.961 255.575 451.399 253.586L499.985 217.322C504.825 213.732 510.127 216.217 511.836 222.491L519.226 249.628L515.646 252.282L508.5 227.032C508.334 226.299 508.01 225.623 507.557 225.065C507.104 224.507 506.537 224.085 505.905 223.834C505.274 223.584 504.597 223.514 503.935 223.63C503.274 223.746 502.648 224.045 502.113 224.501L454.938 259.89C453.371 261.181 452.178 262.97 451.512 265.03C450.846 267.089 450.736 269.326 451.196 271.457L457.433 295.494L453.135 298.685L445.69 271.518Z" fill="black"/>
</g>
<path d="M453.081 298.624L519.226 249.597L526.196 349.737L460.037 398.763L453.081 298.624Z" fill="#81B29A"/>
<path d="M519.226 249.597L526.196 349.752L640.927 415.238L660.44 330.209L519.226 249.597ZM560.543 346.684C559.033 347.219 557.397 347.056 555.992 346.232C554.587 345.407 553.527 343.987 553.045 342.281L535.742 291.46C535.379 290.665 535.167 289.792 535.121 288.899C535.075 288.005 535.196 287.111 535.476 286.273C535.755 285.436 536.187 284.674 536.744 284.038C537.301 283.402 537.97 282.906 538.707 282.581C539.445 282.257 540.234 282.111 541.024 282.154C541.815 282.197 542.588 282.428 543.294 282.832C544.001 283.235 544.624 283.802 545.124 284.495C545.624 285.189 545.99 285.994 546.197 286.858L563.499 337.633C563.834 338.447 564.023 339.327 564.055 340.223C564.087 341.119 563.963 342.014 563.688 342.855C563.413 343.697 562.994 344.468 562.454 345.125C561.914 345.782 561.265 346.312 560.543 346.684ZM593.223 364.08C591.711 364.611 590.074 364.447 588.668 363.623C587.262 362.799 586.199 361.381 585.711 359.677L568.422 308.902C568.058 308.107 567.847 307.234 567.801 306.34C567.755 305.447 567.876 304.552 568.155 303.715C568.435 302.877 568.867 302.116 569.424 301.48C569.981 300.844 570.649 300.347 571.387 300.023C572.124 299.698 572.914 299.553 573.704 299.596C574.494 299.639 575.268 299.87 575.974 300.273C576.68 300.676 577.304 301.243 577.804 301.937C578.304 302.631 578.669 303.436 578.877 304.3L596.166 355.075C596.816 356.706 596.872 358.561 596.321 360.238C595.771 361.916 594.657 363.279 593.223 364.034V364.08ZM625.889 381.46C624.38 381.995 622.746 381.835 621.341 381.013C619.937 380.191 618.876 378.775 618.39 377.073L601.101 326.297C600.738 325.502 600.526 324.629 600.48 323.736C600.435 322.842 600.555 321.948 600.835 321.11C601.115 320.273 601.547 319.512 602.103 318.876C602.66 318.239 603.329 317.743 604.066 317.418C604.804 317.094 605.593 316.948 606.384 316.992C607.174 317.035 607.947 317.265 608.654 317.669C609.36 318.072 609.983 318.639 610.484 319.333C610.984 320.026 611.349 320.831 611.556 321.695L628.845 372.471C629.498 374.1 629.554 375.957 629 377.633C628.446 379.309 627.327 380.669 625.889 381.414V381.46Z" fill="#81B29A"/>
<path opacity="0.55" d="M519.226 249.597L526.196 349.752L640.927 415.238L660.44 330.209L519.226 249.597ZM560.543 346.684C559.033 347.219 557.397 347.056 555.992 346.232C554.587 345.407 553.527 343.987 553.045 342.281L535.742 291.46C535.379 290.665 535.167 289.792 535.121 288.899C535.075 288.005 535.196 287.111 535.476 286.273C535.755 285.436 536.187 284.674 536.744 284.038C537.301 283.402 537.97 282.906 538.707 282.581C539.445 282.257 540.234 282.111 541.024 282.154C541.815 282.197 542.588 282.428 543.294 282.832C544.001 283.235 544.624 283.802 545.124 284.495C545.624 285.189 545.99 285.994 546.197 286.858L563.499 337.633C563.834 338.447 564.023 339.327 564.055 340.223C564.087 341.119 563.963 342.014 563.688 342.855C563.413 343.697 562.994 344.468 562.454 345.125C561.914 345.782 561.265 346.312 560.543 346.684ZM593.223 364.08C591.711 364.611 590.074 364.447 588.668 363.623C587.262 362.799 586.199 361.381 585.711 359.677L568.422 308.902C568.058 308.107 567.847 307.234 567.801 306.34C567.755 305.447 567.876 304.552 568.155 303.715C568.435 302.877 568.867 302.116 569.424 301.48C569.981 300.844 570.649 300.347 571.387 300.023C572.124 299.698 572.914 299.553 573.704 299.596C574.494 299.639 575.268 299.87 575.974 300.273C576.68 300.676 577.304 301.243 577.804 301.937C578.304 302.631 578.669 303.436 578.877 304.3L596.166 355.075C596.816 356.706 596.872 358.561 596.321 360.238C595.771 361.916 594.657 363.279 593.223 364.034V364.08ZM625.889 381.46C624.38 381.995 622.746 381.835 621.341 381.013C619.937 380.191 618.876 378.775 618.39 377.073L601.101 326.297C600.738 325.502 600.526 324.629 600.48 323.736C600.435 322.842 600.555 321.948 600.835 321.11C601.115 320.273 601.547 319.512 602.103 318.876C602.66 318.239 603.329 317.743 604.066 317.418C604.804 317.094 605.593 316.948 606.384 316.992C607.174 317.035 607.947 317.265 608.654 317.669C609.36 318.072 609.983 318.639 610.484 319.333C610.984 320.026 611.349 320.831 611.556 321.695L628.845 372.471C629.498 374.1 629.554 375.957 629 377.633C628.446 379.309 627.327 380.669 625.889 381.414V381.46Z" fill="white"/>
<path d="M526.196 349.737L460.037 398.763L574.781 464.25L640.927 415.238L526.196 349.737Z" fill="#81B29A"/>
<path opacity="0.1" d="M526.196 349.737L460.037 398.763L574.781 464.25L640.927 415.238L526.196 349.737Z" fill="black"/>
<path d="M453.081 298.624L460.05 398.84L574.782 464.326L594.294 379.281L453.081 298.624ZM494.398 395.665C492.887 396.201 491.251 396.041 489.844 395.219C488.437 394.398 487.374 392.981 486.886 391.277L469.597 340.548C469.233 339.753 469.022 338.88 468.976 337.987C468.93 337.093 469.051 336.199 469.33 335.361C469.61 334.524 470.042 333.762 470.599 333.126C471.155 332.49 471.824 331.994 472.562 331.669C473.299 331.345 474.088 331.199 474.879 331.242C475.669 331.285 476.443 331.516 477.149 331.92C477.855 332.323 478.479 332.89 478.979 333.583C479.479 334.277 479.844 335.082 480.051 335.946L497.34 386.721C497.991 388.35 498.046 390.203 497.495 391.878C496.944 393.552 495.831 394.913 494.398 395.665ZM527.064 413.06C525.555 413.596 523.921 413.435 522.516 412.613C521.111 411.792 520.051 410.375 519.565 408.673L502.276 357.898C501.913 357.102 501.701 356.23 501.655 355.336C501.609 354.443 501.73 353.548 502.01 352.711C502.289 351.873 502.722 351.112 503.278 350.476C503.835 349.84 504.504 349.343 505.241 349.019C505.979 348.694 506.768 348.549 507.558 348.592C508.349 348.635 509.122 348.866 509.829 349.269C510.535 349.672 511.158 350.239 511.658 350.933C512.158 351.627 512.524 352.432 512.731 353.296L530.02 404.071C530.35 404.88 530.535 405.756 530.565 406.646C530.594 407.537 530.468 408.425 530.194 409.261C529.919 410.096 529.501 410.862 528.964 411.514C528.427 412.166 527.781 412.691 527.064 413.06ZM559.744 430.456C558.233 430.991 556.597 430.828 555.192 430.003C553.787 429.178 552.728 427.758 552.245 426.053L534.956 375.278C534.592 374.483 534.381 373.61 534.335 372.716C534.289 371.823 534.41 370.928 534.689 370.091C534.969 369.254 535.401 368.492 535.958 367.856C536.515 367.22 537.183 366.724 537.921 366.399C538.658 366.074 539.448 365.929 540.238 365.972C541.028 366.015 541.802 366.246 542.508 366.649C543.214 367.053 543.838 367.62 544.338 368.313C544.838 369.007 545.203 369.812 545.411 370.676L562.74 421.497C563.391 423.135 563.441 424.998 562.88 426.677C562.318 428.357 561.19 429.716 559.744 430.456Z" fill="#81B29A"/>
<path opacity="0.65" d="M453.081 298.624L460.05 398.84L574.782 464.326L594.294 379.281L453.081 298.624ZM494.398 395.665C492.887 396.201 491.251 396.041 489.844 395.219C488.437 394.398 487.374 392.981 486.886 391.277L469.597 340.548C469.233 339.753 469.022 338.88 468.976 337.987C468.93 337.093 469.051 336.199 469.33 335.361C469.61 334.524 470.042 333.762 470.599 333.126C471.155 332.49 471.824 331.994 472.562 331.669C473.299 331.345 474.088 331.199 474.879 331.242C475.669 331.285 476.443 331.516 477.149 331.92C477.855 332.323 478.479 332.89 478.979 333.583C479.479 334.277 479.844 335.082 480.051 335.946L497.34 386.721C497.991 388.35 498.046 390.203 497.495 391.878C496.944 393.552 495.831 394.913 494.398 395.665ZM527.064 413.06C525.555 413.596 523.921 413.435 522.516 412.613C521.111 411.792 520.051 410.375 519.565 408.673L502.276 357.898C501.913 357.102 501.701 356.23 501.655 355.336C501.609 354.443 501.73 353.548 502.01 352.711C502.289 351.873 502.722 351.112 503.278 350.476C503.835 349.84 504.504 349.343 505.241 349.019C505.979 348.694 506.768 348.549 507.558 348.592C508.349 348.635 509.122 348.866 509.829 349.269C510.535 349.672 511.158 350.239 511.658 350.933C512.158 351.627 512.524 352.432 512.731 353.296L530.02 404.071C530.35 404.88 530.535 405.756 530.565 406.646C530.594 407.537 530.468 408.425 530.194 409.261C529.919 410.096 529.501 410.862 528.964 411.514C528.427 412.166 527.781 412.691 527.064 413.06ZM559.744 430.456C558.233 430.991 556.597 430.828 555.192 430.003C553.787 429.178 552.728 427.758 552.245 426.053L534.956 375.278C534.592 374.483 534.381 373.61 534.335 372.716C534.289 371.823 534.41 370.928 534.689 370.091C534.969 369.254 535.401 368.492 535.958 367.856C536.515 367.22 537.183 366.724 537.921 366.399C538.658 366.074 539.448 365.929 540.238 365.972C541.028 366.015 541.802 366.246 542.508 366.649C543.214 367.053 543.838 367.62 544.338 368.313C544.838 369.007 545.203 369.812 545.411 370.676L562.74 421.497C563.391 423.135 563.441 424.998 562.88 426.677C562.318 428.357 561.19 429.716 559.744 430.456Z" fill="white"/>
<path d="M594.294 379.205L660.44 330.209L640.927 415.238L574.781 464.25L594.294 379.205Z" fill="#81B29A"/>
<path opacity="0.2" d="M594.294 379.205L660.44 330.209L640.927 415.238L574.781 464.25L594.294 379.205Z" fill="white"/>
<path d="M271.918 104.511V467.302C271.918 470.677 269.817 472.84 267.213 474.528L129.755 564.328V197.395L271.918 104.511Z" fill="#81B29A"/>
<path opacity="0.23" d="M271.918 104.511V467.302C271.918 470.677 269.817 472.84 267.213 474.528L129.755 564.328V197.395L271.918 104.511Z" fill="black"/>
<path d="M290.184 57.2949L127.884 163.34C126.305 164.53 124.992 166.12 124.05 167.984C123.109 169.848 122.564 171.935 122.46 174.078V620.81C122.46 624.768 124.928 626.378 127.884 624.399L290.184 518.354C291.764 517.164 293.077 515.574 294.018 513.71C294.96 511.846 295.504 509.76 295.608 507.616V60.8845C295.717 56.9267 293.262 55.316 290.184 57.2949ZM287.757 478.04C287.757 481.431 285.655 483.594 283.052 485.281L134.461 582.383C131.871 584.086 129.756 582.705 129.756 579.315V197.349L287.811 94.1109V478.04H287.757Z" fill="#81B29A"/>
<path opacity="0.5" d="M290.184 57.2949L127.884 163.34C126.305 164.53 124.992 166.12 124.05 167.984C123.109 169.848 122.564 171.935 122.46 174.078V620.81C122.46 624.768 124.928 626.378 127.884 624.399L290.184 518.354C291.764 517.164 293.077 515.574 294.018 513.71C294.96 511.846 295.504 509.76 295.608 507.616V60.8845C295.717 56.9267 293.262 55.316 290.184 57.2949ZM287.757 478.04C287.757 481.431 285.655 483.594 283.052 485.281L134.461 582.383C131.871 584.086 129.756 582.705 129.756 579.315V197.349L287.811 94.1109V478.04H287.757Z" fill="black"/>
<path d="M287.824 94.1263V478.04C287.824 481.431 285.723 483.578 283.119 485.281L134.461 582.383C131.871 584.071 129.755 582.705 129.755 579.315V564.343L267.213 474.543C269.817 472.856 271.918 470.693 271.918 467.318V104.527L287.824 94.1263Z" fill="#81B29A"/>
<path opacity="0.4" d="M134.461 582.383L283.119 485.281C284.53 484.436 285.764 483.259 286.74 481.829L270.684 471.321C269.725 472.638 268.545 473.727 267.213 474.528L129.755 564.328V579.3C129.755 582.705 131.871 584.071 134.461 582.383Z" fill="black"/>
<path opacity="0.15" d="M270.684 471.321C269.725 472.638 268.545 473.727 267.213 474.528L130.176 564.052V566.046L267.633 476.246C269.327 475.287 270.739 473.795 271.701 471.95L270.684 471.321Z" fill="black"/>
<path opacity="0.6" d="M287.824 478.04V94.1263L271.919 104.527V467.302C271.924 468.762 271.488 470.18 270.685 471.322L286.74 481.829C287.447 480.728 287.827 479.401 287.824 478.04Z" fill="black"/>
<path d="M127.193 624.783C125.553 625.566 123.782 625.937 122.003 625.87C120.224 625.804 118.478 625.302 116.887 624.399L110.609 620.288C109.009 619.115 107.676 617.531 106.719 615.665C105.763 613.799 105.209 611.704 105.104 609.55V162.849C105.148 161.258 105.475 159.693 106.066 158.247C106.257 157.722 106.475 157.21 106.717 156.713L123.993 168.004C123.627 168.733 123.31 169.492 123.043 170.274C122.622 171.503 122.393 172.806 122.365 174.124V620.825C122.393 624.461 124.494 626.117 127.193 624.783Z" fill="#81B29A"/>
<path opacity="0.6" d="M127.193 624.783C125.553 625.566 123.782 625.937 122.003 625.87C120.224 625.804 118.478 625.302 116.887 624.399L110.609 620.288C109.009 619.115 107.676 617.531 106.719 615.665C105.763 613.799 105.209 611.704 105.104 609.55V162.849C105.148 161.258 105.475 159.693 106.066 158.247C106.257 157.722 106.475 157.21 106.717 156.713L123.993 168.004C123.627 168.733 123.31 169.492 123.043 170.274C122.622 171.503 122.393 172.806 122.365 174.124V620.825C122.393 624.461 124.494 626.117 127.193 624.783Z" fill="black"/>
<path d="M212.662 543.036C215.469 543.036 215.767 546.61 215.767 548.144C215.595 551.21 214.8 554.19 213.443 556.851C212.086 559.512 210.203 561.782 207.943 563.484C207.033 564.133 205.992 564.508 204.919 564.573C202.098 564.573 201.8 561.014 201.8 559.48C201.972 556.415 202.767 553.435 204.124 550.774C205.481 548.113 207.364 545.843 209.624 544.14C210.538 543.489 211.583 543.114 212.662 543.051V543.036ZM212.662 541.149C211.286 541.205 209.948 541.67 208.783 542.499C206.26 544.358 204.16 546.865 202.654 549.816C201.148 552.767 200.28 556.078 200.119 559.48C200.119 563.914 202.071 566.476 204.919 566.476C206.287 566.416 207.619 565.956 208.783 565.141C211.305 563.279 213.403 560.771 214.909 557.821C216.414 554.871 217.284 551.561 217.448 548.16C217.448 543.711 215.496 541.149 212.662 541.149Z" fill="#37474F"/>
<path d="M208.933 116.707C210.967 115.387 212.621 116.461 212.621 119.115C212.551 120.56 212.18 121.966 211.539 123.219C210.898 124.472 210.005 125.536 208.933 126.325C206.899 127.659 205.258 126.586 205.258 123.917C205.327 122.473 205.695 121.068 206.334 119.815C206.972 118.562 207.863 117.497 208.933 116.707Z" fill="#37474F"/>
<path d="M189.162 142.463L228.961 116.385C230.656 115.28 232.025 116.062 232.025 118.149C231.95 119.315 231.633 120.444 231.101 121.446C230.569 122.448 229.836 123.294 228.961 123.917L189.162 149.995C187.467 151.099 186.084 150.317 186.084 148.246C186.158 147.076 186.475 145.942 187.01 144.936C187.545 143.931 188.282 143.084 189.162 142.463Z" fill="#37474F"/>
<path d="M295.608 59.9027C295.215 56.6659 292.896 55.5001 290.184 57.2949L127.871 163.34C126.259 164.479 124.929 166.062 124.006 167.942L106.731 156.652C107.659 154.772 108.993 153.188 110.609 152.05L272.949 46.02C274.65 45.037 276.532 44.5245 278.441 44.5245C280.351 44.5245 282.233 45.037 283.933 46.02L290.184 50.1158C291.655 51.2132 292.9 52.6548 293.835 54.3432C294.771 56.0315 295.376 57.9274 295.608 59.9027Z" fill="#81B29A"/>
<path opacity="0.3" d="M295.608 59.9027C295.215 56.6659 292.896 55.5001 290.184 57.2949L127.871 163.34C126.259 164.479 124.929 166.062 124.006 167.942L106.731 156.652C107.659 154.772 108.993 153.188 110.609 152.05L272.949 46.02C274.65 45.037 276.532 44.5245 278.441 44.5245C280.351 44.5245 282.233 45.037 283.933 46.02L290.184 50.1158C291.655 51.2132 292.9 52.6548 293.835 54.3432C294.771 56.0315 295.376 57.9274 295.608 59.9027Z" fill="black"/>
<path d="M154.855 435.947L150.231 432.879C149.449 432.323 148.794 431.564 148.323 430.665C147.851 429.766 147.576 428.753 147.519 427.71V227.431C147.576 226.387 147.851 225.374 148.323 224.475C148.794 223.576 149.449 222.817 150.231 222.261L239.13 164.138C239.949 163.665 240.855 163.419 241.775 163.419C242.694 163.419 243.6 163.665 244.419 164.138L249.043 167.206C249.825 167.766 250.478 168.528 250.95 169.43C251.421 170.331 251.697 171.346 251.755 172.391V372.762C251.698 373.805 251.423 374.819 250.951 375.718C250.479 376.617 249.825 377.376 249.043 377.932L160.143 435.947C159.326 436.424 158.419 436.672 157.499 436.672C156.579 436.672 155.673 436.424 154.855 435.947Z" fill="#81B29A"/>
<path opacity="0.6" d="M154.855 435.947L150.231 432.879C149.449 432.323 148.794 431.564 148.323 430.665C147.851 429.766 147.576 428.753 147.519 427.71V227.431C147.576 226.387 147.851 225.374 148.323 224.475C148.794 223.576 149.449 222.817 150.231 222.261L239.13 164.138C239.949 163.665 240.855 163.419 241.775 163.419C242.694 163.419 243.6 163.665 244.419 164.138L249.043 167.206C249.825 167.766 250.478 168.528 250.95 169.43C251.421 170.331 251.697 171.346 251.755 172.391V372.762C251.698 373.805 251.423 374.819 250.951 375.718C250.479 376.617 249.825 377.376 249.043 377.932L160.143 435.947C159.326 436.424 158.419 436.672 157.499 436.672C156.579 436.672 155.673 436.424 154.855 435.947Z" fill="white"/>
<path d="M160.144 435.947L249.043 377.886C249.826 377.329 250.48 376.571 250.951 375.672C251.423 374.773 251.699 373.759 251.755 372.716V172.56C251.755 170.657 250.575 169.875 249.043 170.826L160.144 228.735C159.374 229.299 158.733 230.062 158.273 230.961C157.814 231.859 157.549 232.868 157.5 233.904V434.229C157.5 436.132 158.652 436.914 160.144 435.947Z" fill="#81B29A"/>
<path opacity="0.8" d="M160.144 435.947L249.043 377.886C249.826 377.329 250.48 376.571 250.951 375.672C251.423 374.773 251.699 373.759 251.755 372.716V172.56C251.755 170.657 250.575 169.875 249.043 170.826L160.144 228.735C159.374 229.299 158.733 230.062 158.273 230.961C157.814 231.859 157.549 232.868 157.5 233.904V434.229C157.5 436.132 158.652 436.914 160.144 435.947Z" fill="white"/>
<path d="M251.687 172.406V172.56C251.687 170.657 250.507 169.875 248.975 170.826L160.143 228.735C159.503 229.177 158.956 229.774 158.543 230.484L148.631 223.964C149.04 223.251 149.587 222.653 150.231 222.215L239.13 164.138C239.947 163.665 240.851 163.419 241.768 163.419C242.685 163.419 243.589 163.665 244.405 164.138L249.043 167.206C249.814 167.776 250.455 168.545 250.915 169.448C251.374 170.352 251.639 171.365 251.687 172.406Z" fill="#81B29A"/>
<path opacity="0.95" d="M251.687 172.406V172.56C251.687 170.657 250.507 169.875 248.975 170.826L160.143 228.735C159.503 229.177 158.956 229.774 158.543 230.484L148.631 223.964C149.04 223.251 149.587 222.653 150.231 222.215L239.13 164.138C239.947 163.665 240.851 163.419 241.768 163.419C242.685 163.419 243.589 163.665 244.405 164.138L249.043 167.206C249.814 167.776 250.455 168.545 250.915 169.448C251.374 170.352 251.639 171.365 251.687 172.406Z" fill="white"/>
<path d="M207.075 388.301C190.626 399.039 175.887 397.797 175.887 397.797C175.887 365.261 187.006 331.252 188.335 324.61C189.664 317.968 192.227 307.736 188.335 302.919C184.443 298.102 182.097 285.309 182.097 285.309C182.097 285.309 188.335 276.826 188.335 270.398V250.962L194.559 246.897V253.033C194.559 263.403 200.132 268.174 207.007 263.679C213.882 259.185 219.455 247.143 219.455 236.773V230.637L225.679 226.572V246.008C225.679 252.435 231.903 252.788 231.903 252.788C231.903 252.788 229.584 268.542 225.679 278.544C221.774 288.545 224.323 295.31 225.679 300.219C227.035 305.128 238.127 324.625 238.127 357.146C238.127 357.146 223.455 377.579 207.007 388.317" fill="#37474F"/>
<path d="M129.755 197.41L184.253 233.014L342.308 129.776L287.797 94.1868L129.755 197.41Z" fill="#F5F5F5"/>
<path d="M129.755 197.41L184.253 233.015L201.813 221.54L147.316 185.936L129.755 197.41Z" fill="#81B29A"/>
<path d="M164.889 174.477L219.373 210.066L236.933 198.607L182.449 163.003L164.889 174.477Z" fill="#81B29A"/>
<path d="M200.01 151.529L254.507 187.133L272.068 175.658L217.57 140.054L200.01 151.529Z" fill="#81B29A"/>
<path d="M235.13 128.595L289.628 164.184L307.188 152.71L252.69 117.121L235.13 128.595Z" fill="#81B29A"/>
<path d="M270.264 105.647L324.748 141.251L342.308 129.776L287.824 94.1723L270.264 105.647Z" fill="#81B29A"/>
<path d="M201.813 221.54C201.813 228.857 205.745 232.278 210.6 229.057C215.454 225.836 219.387 217.383 219.387 210.066L201.813 221.54Z" fill="#E6E6E6"/>
<path d="M236.947 198.607C236.947 205.924 240.88 209.345 245.734 206.124C250.589 202.902 254.521 194.45 254.521 187.133L236.947 198.607Z" fill="#E6E6E6"/>
<path d="M272.081 175.674C272.081 182.976 276.013 186.412 280.868 183.175C285.722 179.938 289.655 171.517 289.655 164.199L272.081 175.674Z" fill="#E6E6E6"/>
<path d="M307.215 152.725C307.215 160.042 311.147 163.463 316.002 160.242C320.856 157.02 324.789 148.568 324.789 141.251L307.215 152.725Z" fill="#E6E6E6"/>
<path d="M184.253 233.015C184.253 240.332 188.185 243.753 193.04 240.531C197.894 237.31 201.813 228.857 201.813 221.54L184.253 233.015Z" fill="#81B29A"/>
<path d="M219.387 210.158C219.387 217.475 223.319 220.896 228.174 217.659C233.028 214.423 236.947 206.001 236.947 198.684L219.387 210.158Z" fill="#81B29A"/>
<path d="M254.521 187.148C254.521 194.465 258.453 197.886 263.294 194.665C268.135 191.443 272.081 182.991 272.081 175.674L254.521 187.148Z" fill="#81B29A"/>
<path d="M289.655 164.138C289.655 171.455 293.587 174.876 298.428 171.655C303.269 168.433 307.215 159.981 307.215 152.664L289.655 164.138Z" fill="#81B29A"/>
<path d="M324.789 141.251C324.789 148.568 328.721 151.989 333.562 148.767C338.403 145.546 342.349 137.109 342.349 129.792L324.789 141.251Z" fill="#81B29A"/>
<g opacity="0.2">
<path opacity="0.2" d="M184.253 233.015C184.253 240.332 188.185 243.753 193.04 240.531C197.894 237.31 201.813 228.857 201.813 221.54L184.253 233.015Z" fill="black"/>
<path opacity="0.2" d="M219.387 210.158C219.387 217.475 223.319 220.896 228.174 217.659C233.028 214.423 236.947 206.001 236.947 198.684L219.387 210.158Z" fill="black"/>
<path opacity="0.2" d="M254.521 187.148C254.521 194.465 258.453 197.886 263.294 194.665C268.135 191.443 272.081 182.991 272.081 175.674L254.521 187.148Z" fill="black"/>
<path opacity="0.2" d="M289.655 164.138C289.655 171.455 293.587 174.876 298.428 171.655C303.269 168.433 307.215 159.981 307.215 152.664L289.655 164.138Z" fill="black"/>
<path opacity="0.2" d="M324.789 141.251C324.789 148.568 328.721 151.989 333.562 148.767C338.403 145.546 342.349 137.109 342.349 129.792L324.789 141.251Z" fill="black"/>
</g>
<path d="M146.082 464.664C146.205 462.802 146.713 460.998 147.566 459.4C148.418 457.801 149.592 456.451 150.991 455.46L196.363 425.838C199.075 424.059 201.258 425.317 201.258 428.63C201.134 430.491 200.627 432.292 199.777 433.891C198.927 435.489 197.758 436.84 196.363 437.834L150.991 467.471C148.279 469.235 146.082 467.977 146.082 464.664Z" fill="#81B29A"/>
<path opacity="0.8" d="M146.082 464.664C146.205 462.802 146.713 460.998 147.566 459.4C148.418 457.801 149.592 456.451 150.991 455.46L196.363 425.838C199.075 424.059 201.258 425.317 201.258 428.63C201.134 430.491 200.627 432.292 199.777 433.891C198.927 435.489 197.758 436.84 196.363 437.834L150.991 467.471C148.279 469.235 146.082 467.977 146.082 464.664Z" fill="white"/>
<path d="M152.998 480.142C153.439 480.003 153.901 479.972 154.354 480.05C154.724 480.111 155.077 480.269 155.384 480.51C155.665 480.743 155.893 481.048 156.049 481.4C156.21 481.757 156.298 482.15 156.306 482.55C156.309 482.712 156.272 482.872 156.198 483.011C156.15 483.137 156.07 483.244 155.967 483.317L153.825 484.729C153.714 484.807 153.589 484.855 153.459 484.867C153.357 484.859 153.259 484.822 153.174 484.759L153.011 484.606C152.924 484.528 152.822 484.475 152.713 484.453C152.553 484.406 152.385 484.406 152.225 484.453C151.969 484.514 151.725 484.629 151.506 484.79C151.294 484.915 151.094 485.064 150.909 485.235C150.725 485.393 150.553 485.567 150.394 485.756C150.252 485.947 150.133 486.158 150.042 486.385C149.947 486.605 149.901 486.847 149.906 487.091C149.894 487.183 149.902 487.276 149.928 487.364C149.954 487.452 149.997 487.532 150.055 487.597C150.211 487.714 150.4 487.758 150.584 487.72C150.912 487.686 151.235 487.609 151.547 487.49L153.052 486.968C153.56 486.779 154.09 486.671 154.625 486.646C155.019 486.617 155.411 486.724 155.75 486.953C156.064 487.212 156.297 487.577 156.415 487.996C156.577 488.602 156.651 489.235 156.632 489.868C156.633 490.568 156.546 491.265 156.374 491.938C156.193 492.636 155.948 493.309 155.642 493.948C155.317 494.611 154.93 495.233 154.489 495.804C154.042 496.387 153.552 496.926 153.025 497.415V499.164C153.023 499.358 152.976 499.548 152.889 499.716C152.823 499.881 152.714 500.02 152.577 500.115L150.435 501.511C150.388 501.545 150.334 501.563 150.279 501.563C150.223 501.563 150.169 501.545 150.123 501.511C150.079 501.46 150.046 501.4 150.025 501.334C150.004 501.268 149.996 501.197 150.001 501.127V499.302C149.56 499.44 149.1 499.486 148.645 499.44C148.26 499.397 147.891 499.244 147.574 498.995C147.271 498.761 147.032 498.437 146.882 498.059C146.705 497.637 146.612 497.176 146.611 496.709C146.617 496.554 146.654 496.401 146.719 496.264C146.771 496.132 146.856 496.02 146.963 495.942L149.106 494.546C149.212 494.467 149.333 494.415 149.458 494.393C149.551 494.393 149.641 494.425 149.716 494.485C149.789 494.545 149.857 494.612 149.919 494.684C150.019 494.789 150.14 494.862 150.272 494.899C150.455 494.949 150.645 494.949 150.828 494.899C151.122 494.837 151.403 494.713 151.655 494.531C152.183 494.2 152.667 493.787 153.093 493.304C153.269 493.128 153.411 492.914 153.512 492.674C153.612 492.434 153.668 492.173 153.676 491.908C153.676 491.662 153.608 491.494 153.472 491.432C153.264 491.365 153.043 491.365 152.835 491.432C152.463 491.505 152.096 491.607 151.737 491.739C151.303 491.892 150.774 492.077 150.177 492.261C149.786 492.463 149.356 492.551 148.927 492.516C148.498 492.481 148.084 492.325 147.723 492.061C147.419 491.671 147.192 491.212 147.056 490.715C146.921 490.218 146.88 489.694 146.936 489.177C146.945 488.566 147.017 487.959 147.153 487.367C147.302 486.722 147.507 486.096 147.763 485.496C148.043 484.863 148.374 484.263 148.753 483.701C149.157 483.11 149.611 482.565 150.109 482.075V480.249C150.111 480.057 150.153 479.868 150.231 479.697C150.302 479.535 150.41 479.397 150.543 479.298L152.686 477.887C152.731 477.849 152.785 477.828 152.842 477.828C152.898 477.828 152.953 477.849 152.998 477.887C153.047 477.933 153.085 477.992 153.109 478.059C153.133 478.126 153.141 478.199 153.133 478.271L152.998 480.142Z" fill="#37474F"/>
<path d="M157.445 482.719C157.402 482.657 157.372 482.585 157.358 482.508C157.344 482.43 157.346 482.35 157.364 482.274C157.391 482.079 157.45 481.892 157.54 481.722L161.066 475.356C161.147 475.203 161.256 475.003 161.378 474.804C161.487 474.605 161.636 474.437 161.812 474.313L163.805 473.009C163.85 472.97 163.904 472.949 163.961 472.949C164.017 472.949 164.072 472.97 164.117 473.009C164.166 473.055 164.204 473.114 164.228 473.181C164.252 473.248 164.26 473.321 164.252 473.392V489.346C164.252 489.541 164.205 489.731 164.117 489.898C164.05 490.064 163.942 490.202 163.805 490.297L161.662 491.693C161.616 491.727 161.562 491.746 161.506 491.746C161.451 491.746 161.397 491.727 161.35 491.693C161.307 491.643 161.274 491.582 161.253 491.516C161.232 491.45 161.223 491.38 161.228 491.309V480.572L159.276 484.054C159.208 484.211 159.093 484.336 158.95 484.407C158.908 484.444 158.855 484.464 158.801 484.464C158.747 484.464 158.695 484.444 158.652 484.407L157.445 482.719Z" fill="#37474F"/>
<path d="M170.951 468.1C171.588 467.636 172.313 467.347 173.066 467.256C173.592 467.221 174.112 467.401 174.531 467.763C174.945 468.168 175.246 468.701 175.399 469.297C175.598 470.054 175.707 470.838 175.724 471.628C175.724 472.334 175.724 473.055 175.724 473.837C175.724 474.62 175.724 475.371 175.724 476.031C175.694 476.961 175.585 477.886 175.399 478.792C175.207 479.729 174.916 480.635 174.531 481.492C174.131 482.364 173.639 483.178 173.066 483.916C172.453 484.675 171.74 485.322 170.951 485.833C170.321 486.3 169.599 486.584 168.849 486.661C168.323 486.715 167.8 486.539 167.385 486.171C166.965 485.77 166.662 485.236 166.517 484.637C166.311 483.88 166.197 483.096 166.178 482.305C166.178 481.645 166.178 480.94 166.178 480.157C166.178 479.375 166.178 478.623 166.178 477.918C166.212 476.982 166.326 476.052 166.517 475.141C166.704 474.203 166.996 473.296 167.385 472.441C167.775 471.568 168.267 470.758 168.849 470.033C169.452 469.264 170.162 468.611 170.951 468.1ZM172.7 477.902C172.754 476.471 172.754 475.09 172.7 473.761C172.691 473.404 172.65 473.049 172.578 472.702C172.542 472.442 172.443 472.198 172.293 471.996C172.231 471.911 172.152 471.843 172.063 471.798C171.973 471.753 171.876 471.731 171.778 471.736C171.483 471.754 171.198 471.86 170.951 472.042C170.646 472.243 170.372 472.497 170.137 472.794C169.923 473.082 169.746 473.402 169.608 473.745C169.477 474.095 169.382 474.46 169.324 474.834C169.255 475.234 169.215 475.639 169.202 476.046C169.147 477.457 169.147 478.838 169.202 480.188C169.212 480.549 169.248 480.908 169.31 481.262C169.35 481.524 169.453 481.768 169.608 481.967C169.675 482.051 169.756 482.118 169.848 482.163C169.939 482.208 170.038 482.23 170.137 482.228C170.426 482.2 170.705 482.095 170.951 481.921C171.556 481.53 172.031 480.927 172.307 480.203C172.444 479.856 172.54 479.49 172.592 479.114C172.663 478.715 172.7 478.309 172.7 477.902Z" fill="#37474F"/>
<path d="M180.348 478.853C180.348 479.048 180.301 479.239 180.212 479.406C180.15 479.574 180.04 479.714 179.9 479.805L177.758 481.216C177.713 481.254 177.658 481.275 177.602 481.275C177.546 481.275 177.491 481.254 177.446 481.216C177.401 481.167 177.366 481.107 177.345 481.04C177.324 480.974 177.317 480.903 177.324 480.832V477.611C177.327 477.414 177.369 477.22 177.446 477.043C177.517 476.881 177.624 476.744 177.758 476.644L179.9 475.249C179.945 475.21 180 475.189 180.056 475.189C180.113 475.189 180.167 475.21 180.212 475.249C180.261 475.294 180.3 475.354 180.323 475.421C180.347 475.488 180.355 475.56 180.348 475.632V478.853Z" fill="#37474F"/>
<path d="M184.714 471.506C184.788 471.61 184.87 471.708 184.958 471.797C185.055 471.905 185.171 471.988 185.297 472.042C185.454 472.074 185.615 472.074 185.772 472.042C186.004 472.002 186.225 471.908 186.423 471.766C186.663 471.606 186.885 471.416 187.087 471.199C187.294 470.964 187.48 470.707 187.643 470.432C187.802 470.144 187.93 469.834 188.023 469.511C188.117 469.179 188.163 468.832 188.159 468.484C188.185 468.274 188.158 468.061 188.081 467.868C188.004 467.675 187.881 467.511 187.725 467.394C187.525 467.33 187.314 467.319 187.11 467.362C186.905 467.404 186.712 467.499 186.545 467.64C186.386 467.746 186.24 467.874 186.111 468.023C185.977 468.169 185.851 468.323 185.731 468.484L185.42 468.898C185.342 468.995 185.256 469.082 185.162 469.159L182.613 470.938C182.566 470.978 182.509 470.999 182.45 470.999C182.391 470.999 182.334 470.978 182.287 470.938C182.241 470.891 182.206 470.83 182.187 470.763C182.168 470.695 182.165 470.624 182.179 470.555L182.667 461.427C182.679 461.23 182.725 461.037 182.802 460.86C182.869 460.703 182.972 460.57 183.101 460.476L190.111 455.874C190.155 455.833 190.21 455.81 190.267 455.81C190.324 455.81 190.379 455.833 190.423 455.874C190.468 455.923 190.503 455.983 190.524 456.05C190.545 456.116 190.552 456.187 190.545 456.258V458.881C190.542 459.073 190.5 459.262 190.423 459.433C190.352 459.595 190.245 459.733 190.111 459.832L185.352 462.9L185.23 465.185C185.433 464.878 185.66 464.59 185.908 464.326C186.164 464.056 186.446 463.82 186.748 463.621C187.287 463.242 187.886 462.986 188.511 462.869C188.972 462.777 189.447 462.852 189.867 463.084C190.293 463.354 190.624 463.782 190.803 464.296C191.042 465.021 191.152 465.793 191.128 466.566C191.131 467.532 191.008 468.494 190.762 469.419C190.524 470.325 190.182 471.191 189.745 471.996C189.324 472.785 188.819 473.512 188.24 474.159C187.679 474.784 187.051 475.326 186.369 475.77C185.765 476.201 185.092 476.493 184.389 476.629C183.891 476.741 183.375 476.677 182.911 476.445C182.499 476.219 182.169 475.84 181.975 475.371C181.743 474.832 181.627 474.238 181.636 473.638C181.637 473.478 181.669 473.321 181.731 473.178C181.795 473.05 181.883 472.941 181.989 472.856L184.064 471.506C184.121 471.455 184.186 471.419 184.256 471.398C184.326 471.377 184.399 471.372 184.47 471.383C184.559 471.401 184.643 471.443 184.714 471.506Z" fill="#37474F"/>
<path d="M192.281 460.307C192.282 459.343 192.419 458.385 192.687 457.469C192.947 456.543 193.307 455.657 193.759 454.831C194.193 454.031 194.707 453.29 195.291 452.622C195.822 452.026 196.419 451.51 197.067 451.088C197.619 450.716 198.225 450.462 198.857 450.336C199.375 450.23 199.91 450.305 200.389 450.551C200.862 450.807 201.241 451.241 201.461 451.778C201.756 452.503 201.895 453.297 201.868 454.095C201.866 454.563 201.83 455.03 201.759 455.491C201.689 455.936 201.599 456.376 201.488 456.81C201.366 457.224 201.244 457.654 201.095 458.068C200.945 458.482 200.81 458.881 200.674 459.264L197.569 467.793L197.379 468.207C197.321 468.383 197.204 468.526 197.054 468.606L194.45 470.309C194.355 470.309 194.274 470.309 194.22 470.309C194.156 470.217 194.123 470.103 194.125 469.987C194.116 469.916 194.116 469.843 194.125 469.772C194.125 469.772 194.125 469.649 194.125 469.603L196.227 463.805C195.738 464.022 195.219 464.136 194.694 464.142C194.238 464.152 193.79 464.007 193.406 463.728C193.013 463.418 192.707 462.987 192.525 462.486C192.309 461.787 192.226 461.045 192.281 460.307ZM198.844 456.028C198.852 455.752 198.801 455.478 198.694 455.23C198.611 455.036 198.473 454.88 198.301 454.785C198.121 454.703 197.924 454.676 197.732 454.708C197.496 454.75 197.271 454.844 197.067 454.984C196.829 455.152 196.61 455.353 196.416 455.583C196.201 455.829 196.01 456.102 195.847 456.396C195.683 456.689 195.551 457.003 195.454 457.331C195.359 457.653 195.309 457.989 195.304 458.329C195.297 458.609 195.348 458.888 195.454 459.142C195.537 459.332 195.676 459.483 195.847 459.571C196.026 459.661 196.224 459.687 196.416 459.648C196.648 459.608 196.87 459.514 197.067 459.372C197.315 459.22 197.54 459.023 197.732 458.789C197.948 458.542 198.139 458.27 198.301 457.976C198.465 457.677 198.597 457.358 198.694 457.025C198.789 456.703 198.839 456.367 198.844 456.028Z" fill="#37474F"/>
<path d="M211.224 452.07C211.224 453.727 212.322 454.355 213.678 453.466L217.977 450.659C218.678 450.165 219.266 449.491 219.692 448.691C220.119 447.891 220.372 446.988 220.431 446.057C220.431 444.4 219.333 443.771 217.977 444.661L213.678 447.452C212.977 447.95 212.389 448.627 211.963 449.429C211.537 450.231 211.283 451.136 211.224 452.07Z" fill="#37474F"/>
<path d="M225.096 443.05C225.096 444.707 226.194 445.336 227.537 444.461L231.835 441.654C232.535 441.158 233.121 440.484 233.548 439.684C233.974 438.885 234.228 437.983 234.289 437.052C234.289 435.395 233.191 434.766 231.835 435.641L227.537 438.448C226.84 438.946 226.257 439.622 225.833 440.421C225.409 441.22 225.157 442.12 225.096 443.05Z" fill="#37474F"/>
<path d="M238.819 434.122C238.819 435.779 239.917 436.408 241.273 435.518L245.558 432.726C246.258 432.231 246.844 431.556 247.271 430.756C247.697 429.957 247.951 429.055 248.013 428.124C248.013 426.467 246.914 425.838 245.558 426.728L241.273 429.52C240.574 430.016 239.987 430.69 239.561 431.49C239.134 432.289 238.88 433.191 238.819 434.122Z" fill="#37474F"/>
<path d="M252.609 425.041C252.609 426.697 253.707 427.326 255.063 426.437L259.362 423.629C260.059 423.132 260.643 422.457 261.067 421.657C261.491 420.858 261.743 419.957 261.803 419.027C261.803 417.371 260.704 416.742 259.362 417.632L255.063 420.439C254.362 420.932 253.774 421.607 253.348 422.407C252.921 423.206 252.668 424.109 252.609 425.041Z" fill="#37474F"/>
<path d="M231.144 461.303C230.401 460.897 229.585 460.695 228.761 460.711C227.937 460.727 227.128 460.961 226.398 461.395L143.939 515.253C143.226 515.78 142.632 516.488 142.205 517.323C141.779 518.157 141.532 519.093 141.485 520.055V537.681C141.452 538.628 141.648 539.568 142.053 540.399C142.457 541.229 143.055 541.919 143.781 542.393C144.507 542.866 145.334 543.107 146.172 543.087C147.01 543.068 147.828 542.79 148.536 542.283L230.995 488.424C231.708 487.898 232.302 487.189 232.729 486.355C233.155 485.521 233.402 484.585 233.449 483.622V465.997C233.419 465.064 233.194 464.153 232.794 463.337C232.393 462.521 231.828 461.824 231.144 461.303Z" fill="#81B29A"/>
<path opacity="0.3" d="M231.144 461.303C230.401 460.897 229.585 460.695 228.761 460.711C227.937 460.727 227.128 460.961 226.398 461.395L143.939 515.253C143.226 515.78 142.632 516.488 142.205 517.323C141.779 518.157 141.532 519.093 141.485 520.055V537.681C141.452 538.628 141.648 539.568 142.053 540.399C142.457 541.229 143.055 541.919 143.781 542.393C144.507 542.866 145.334 543.107 146.172 543.087C147.01 543.068 147.828 542.79 148.536 542.283L230.995 488.424C231.708 487.898 232.302 487.189 232.729 486.355C233.155 485.521 233.402 484.585 233.449 483.622V465.997C233.419 465.064 233.194 464.153 232.794 463.337C232.393 462.521 231.828 461.824 231.144 461.303Z" fill="black"/>
<path d="M148.536 518.262L230.995 464.403C232.351 463.513 233.449 464.234 233.449 465.937V483.563C233.402 484.525 233.155 485.461 232.729 486.295C232.302 487.129 231.708 487.838 230.995 488.364L148.536 542.223C147.18 543.113 146.082 542.392 146.082 540.689V523.094C146.125 522.127 146.37 521.184 146.796 520.345C147.223 519.505 147.819 518.791 148.536 518.262Z" fill="#81B29A"/>
<path d="M233.422 465.554C233.245 464.112 232.228 463.59 230.995 464.403L148.536 518.262C147.808 518.77 147.21 519.484 146.8 520.333L142.204 517.265C142.617 516.419 143.215 515.706 143.939 515.194L226.452 461.397C227.182 460.957 227.993 460.718 228.82 460.699C229.647 460.68 230.466 460.883 231.211 461.289C231.825 461.783 232.34 462.418 232.721 463.153C233.102 463.888 233.341 464.707 233.422 465.554Z" fill="#81B29A"/>
<path opacity="0.5" d="M233.422 465.554C233.245 464.112 232.228 463.59 230.995 464.403L148.536 518.262C147.808 518.77 147.21 519.484 146.8 520.333L142.204 517.265C142.617 516.419 143.215 515.706 143.939 515.194L226.452 461.397C227.182 460.957 227.993 460.718 228.82 460.699C229.647 460.68 230.466 460.883 231.211 461.289C231.825 461.783 232.34 462.418 232.721 463.153C233.102 463.888 233.341 464.707 233.422 465.554Z" fill="white"/>
<path d="M155.411 519.29C155.574 519.177 155.696 519.177 155.777 519.29C155.857 519.368 155.918 519.469 155.954 519.581L158.666 529.445C158.68 529.526 158.68 529.609 158.666 529.69C158.662 529.808 158.635 529.924 158.584 530.028C158.543 530.128 158.477 530.213 158.394 530.273L156.862 531.27C156.699 531.378 156.577 531.408 156.51 531.347C156.448 531.294 156.404 531.218 156.388 531.132L156.035 529.813L152.794 531.945L152.455 533.694C152.427 533.829 152.381 533.958 152.32 534.077C152.243 534.241 152.125 534.375 151.981 534.461L150.435 535.473C150.407 535.496 150.374 535.508 150.34 535.508C150.306 535.508 150.273 535.496 150.245 535.473C150.216 535.445 150.194 535.409 150.18 535.369C150.166 535.329 150.16 535.286 150.164 535.243C150.158 535.136 150.158 535.028 150.164 534.921L152.876 521.591C152.923 521.412 152.982 521.238 153.052 521.069C153.142 520.886 153.273 520.732 153.432 520.624L155.411 519.29ZM153.432 528.632L155.411 527.328L154.421 523.57L153.432 528.632Z" fill="white"/>
<path d="M163.832 513.798C164.297 513.465 164.819 513.25 165.365 513.169C165.783 513.097 166.211 513.195 166.571 513.445C166.932 513.708 167.208 514.095 167.358 514.55C167.564 515.141 167.674 515.77 167.683 516.406C167.683 516.667 167.683 516.897 167.683 517.111V518.339C167.683 518.538 167.683 518.768 167.683 519.029C167.654 519.801 167.549 520.568 167.371 521.315C167.188 522.055 166.924 522.766 166.585 523.431C166.267 524.094 165.875 524.707 165.419 525.257C164.972 525.801 164.455 526.266 163.887 526.638L160.591 528.785C160.558 528.812 160.517 528.826 160.476 528.826C160.435 528.826 160.395 528.812 160.361 528.785C160.326 528.749 160.299 528.703 160.282 528.653C160.266 528.602 160.26 528.547 160.266 528.494V516.605C160.265 516.46 160.298 516.317 160.361 516.191C160.408 516.064 160.488 515.957 160.591 515.884L163.832 513.798ZM165.419 517.817C165.419 516.436 164.822 516.084 163.764 516.774L162.517 517.587V524.628L163.873 523.784C164.364 523.467 164.77 523.007 165.05 522.451C165.329 521.895 165.47 521.264 165.459 520.624C165.459 520.348 165.459 520.103 165.459 519.888V518.492C165.432 518.293 165.432 518.062 165.432 517.817H165.419Z" fill="white"/>
<path d="M173.256 507.631C173.726 507.3 174.253 507.086 174.802 507.002C175.216 506.946 175.634 507.043 175.995 507.278C176.36 507.54 176.641 507.927 176.795 508.383C177.001 508.98 177.111 509.614 177.121 510.254C177.121 510.5 177.121 510.73 177.121 510.945V512.172C177.121 512.387 177.121 512.617 177.121 512.862C177.094 513.636 176.985 514.404 176.795 515.148C176.608 515.889 176.349 516.604 176.022 517.28C175.697 517.941 175.301 518.554 174.843 519.106C174.4 519.644 173.888 520.105 173.324 520.471L170.029 522.634C169.934 522.634 169.866 522.634 169.798 522.634C169.763 522.597 169.736 522.552 169.72 522.501C169.703 522.45 169.698 522.396 169.704 522.342V510.454C169.703 510.309 169.735 510.166 169.798 510.04C169.845 509.917 169.926 509.814 170.029 509.748L173.256 507.631ZM174.856 511.65C174.856 510.27 174.26 509.917 173.202 510.607L171.954 511.42V518.492L173.31 517.648C173.807 517.337 174.219 516.878 174.501 516.321C174.783 515.764 174.925 515.13 174.911 514.488C174.911 514.227 174.911 513.982 174.911 513.752V512.356C174.924 512.141 174.924 511.896 174.924 511.65H174.856Z" fill="white"/>
<path d="M188.308 497.798C188.34 497.767 188.381 497.75 188.423 497.75C188.465 497.75 188.506 497.767 188.538 497.798C188.573 497.835 188.601 497.88 188.617 497.931C188.634 497.982 188.639 498.036 188.633 498.09V500.084C188.634 500.229 188.601 500.372 188.538 500.498C188.487 500.618 188.407 500.719 188.308 500.79L186.165 502.201V511.635C186.161 511.781 186.123 511.924 186.057 512.049C186.011 512.177 185.93 512.284 185.826 512.356L184.226 513.399C184.193 513.428 184.152 513.443 184.111 513.443C184.069 513.443 184.029 513.428 183.996 513.399C183.96 513.363 183.933 513.317 183.917 513.267C183.9 513.216 183.895 513.161 183.901 513.108V503.674L181.758 505.07C181.724 505.096 181.684 505.11 181.643 505.11C181.602 505.11 181.562 505.096 181.528 505.07C181.491 505.034 181.462 504.989 181.443 504.938C181.424 504.888 181.416 504.833 181.419 504.778V502.83C181.424 502.684 181.461 502.541 181.528 502.416C181.574 502.288 181.654 502.181 181.758 502.109L188.308 497.798Z" fill="white"/>
<path d="M189.922 501.618C189.942 500.896 190.042 500.18 190.22 499.486C190.576 498.03 191.231 496.69 192.132 495.574C192.592 495.008 193.127 494.526 193.718 494.147C194.199 493.793 194.748 493.572 195.318 493.503C195.725 493.448 196.136 493.55 196.485 493.795C196.827 494.068 197.088 494.453 197.23 494.899C197.416 495.459 197.517 496.05 197.529 496.648C197.529 497.154 197.529 497.706 197.529 498.274C197.529 498.841 197.529 499.409 197.529 499.915C197.502 500.637 197.402 501.352 197.23 502.047C197.058 502.775 196.808 503.475 196.485 504.134C196.166 504.8 195.774 505.419 195.318 505.975C194.844 506.529 194.306 507.009 193.718 507.401C193.235 507.739 192.695 507.958 192.132 508.045C191.723 508.104 191.309 507.995 190.966 507.739C190.62 507.468 190.359 507.082 190.22 506.634C190.027 506.077 189.926 505.484 189.922 504.885C189.922 504.395 189.922 503.858 189.922 503.351C189.922 502.845 189.908 502.094 189.922 501.618ZM195.278 501.296C195.278 501.081 195.278 500.82 195.278 500.544C195.278 500.268 195.278 499.992 195.278 499.716C195.278 499.44 195.278 499.164 195.278 498.903C195.278 498.642 195.278 498.412 195.278 498.212C195.267 497.951 195.221 497.692 195.142 497.445C195.09 497.259 194.991 497.094 194.857 496.97C194.719 496.86 194.552 496.806 194.383 496.817C194.146 496.851 193.919 496.946 193.718 497.093C193.476 497.248 193.257 497.445 193.067 497.676C192.885 497.911 192.726 498.168 192.593 498.443C192.47 498.716 192.375 499.004 192.308 499.302C192.242 499.609 192.197 499.922 192.173 500.237C192.173 500.452 192.173 500.698 192.173 500.958V502.615C192.173 502.876 192.173 503.121 192.173 503.321C192.165 503.785 192.315 504.236 192.593 504.579C192.851 504.824 193.217 504.778 193.718 504.456C194.208 504.148 194.601 503.677 194.844 503.106C195.092 502.52 195.235 501.884 195.264 501.234L195.278 501.296Z" fill="white"/>
<path d="M203.102 501.02C203.068 501.046 203.028 501.06 202.987 501.06C202.945 501.06 202.905 501.046 202.871 501.02C202.834 500.984 202.805 500.939 202.787 500.889C202.768 500.838 202.76 500.783 202.763 500.728V488.84C202.767 488.694 202.805 488.551 202.871 488.426C202.917 488.298 202.998 488.191 203.102 488.119L207.034 485.557C207.443 485.257 207.907 485.068 208.39 485.005C208.549 484.982 208.71 484.996 208.864 485.046C209.018 485.096 209.161 485.181 209.285 485.296C209.53 485.537 209.701 485.859 209.773 486.217C209.924 486.959 209.924 487.73 209.773 488.472C209.723 488.746 209.66 489.018 209.584 489.285C209.523 489.491 209.445 489.692 209.353 489.883C209.299 490.021 209.235 490.154 209.163 490.282C209.315 490.333 209.454 490.423 209.569 490.546C209.685 490.668 209.773 490.819 209.828 490.987C209.975 491.454 210.039 491.95 210.017 492.445C210.016 492.96 209.971 493.474 209.882 493.979C209.772 494.51 209.608 495.024 209.394 495.513C209.17 496.068 208.877 496.584 208.526 497.047C208.136 497.528 207.678 497.932 207.17 498.243L203.102 501.02ZM207.658 489.07C207.658 488.748 207.658 488.533 207.468 488.426C207.278 488.318 207.17 488.334 206.912 488.502L205.027 489.73V491.831L206.912 490.604C207.152 490.453 207.346 490.223 207.468 489.944C207.599 489.677 207.665 489.375 207.658 489.07ZM205.027 496.909L207.048 495.605C207.291 495.429 207.492 495.186 207.631 494.899C207.766 494.605 207.84 494.28 207.848 493.948C207.859 493.827 207.845 493.704 207.807 493.59C207.77 493.475 207.709 493.372 207.631 493.288C207.544 493.224 207.443 493.189 207.339 493.189C207.236 493.189 207.134 493.224 207.048 493.288L205.027 494.608V496.909Z" fill="white"/>
<path d="M216.418 479.452C216.58 479.349 216.702 479.349 216.784 479.452C216.869 479.524 216.931 479.627 216.96 479.743L219.672 489.591C219.686 489.672 219.686 489.756 219.672 489.837C219.672 489.956 219.644 490.072 219.591 490.174C219.554 490.278 219.487 490.365 219.401 490.42L217.868 491.432C217.706 491.54 217.584 491.555 217.516 491.432C217.452 491.381 217.408 491.304 217.394 491.217L217.055 489.914L213.8 492.031L213.461 493.779C213.44 493.921 213.394 494.056 213.326 494.178C213.246 494.338 213.129 494.471 212.987 494.562L211.441 495.559C211.413 495.581 211.38 495.593 211.346 495.593C211.312 495.593 211.279 495.581 211.251 495.559C211.226 495.485 211.226 495.403 211.251 495.329C211.243 495.227 211.243 495.124 211.251 495.022L213.963 481.691C214.006 481.511 214.065 481.337 214.139 481.17C214.225 480.983 214.357 480.829 214.519 480.725L216.418 479.452ZM214.438 488.778L216.418 487.49L215.428 483.716L214.438 488.778Z" fill="white"/>
<path d="M224.567 476.89C224.305 477.044 224.07 477.252 223.876 477.504C223.693 477.741 223.538 478.004 223.415 478.286C223.295 478.552 223.208 478.836 223.157 479.13C223.092 479.422 223.047 479.719 223.021 480.019C223.021 480.188 223.021 480.418 223.021 480.71V481.584C223.021 481.891 223.021 482.182 223.021 482.458C223.021 482.734 223.021 482.965 223.021 483.118C223.045 483.367 223.086 483.613 223.144 483.854C223.194 484.046 223.288 484.221 223.415 484.361C223.545 484.476 223.71 484.531 223.876 484.514C224.124 484.495 224.364 484.4 224.567 484.238C224.783 484.102 224.983 483.937 225.164 483.747C225.355 483.551 225.52 483.323 225.652 483.072C225.795 482.809 225.905 482.525 225.978 482.228C226.062 481.899 226.103 481.558 226.1 481.216L225.083 481.891C225.048 481.914 225.008 481.926 224.967 481.926C224.927 481.926 224.887 481.914 224.852 481.891C224.815 481.855 224.786 481.81 224.767 481.76C224.749 481.709 224.74 481.654 224.744 481.599V479.651C224.748 479.505 224.785 479.362 224.852 479.237C224.895 479.111 224.977 479.008 225.083 478.945L228.025 477.013C228.06 476.983 228.103 476.967 228.147 476.967C228.191 476.967 228.234 476.983 228.269 477.013C228.302 477.048 228.327 477.091 228.344 477.139C228.36 477.187 228.367 477.238 228.364 477.289V479.651C228.367 480.431 228.266 481.206 228.066 481.952C227.878 482.698 227.609 483.414 227.266 484.084C226.926 484.729 226.521 485.326 226.059 485.864C225.62 486.382 225.118 486.826 224.567 487.183C224.093 487.526 223.554 487.742 222.994 487.812C222.582 487.868 222.164 487.759 221.815 487.505C221.466 487.239 221.204 486.851 221.069 486.401C220.884 485.851 220.783 485.27 220.771 484.683C220.771 484.192 220.771 483.655 220.771 483.149C220.771 482.642 220.771 482.013 220.771 481.477C220.788 480.759 220.888 480.047 221.069 479.36C221.427 477.897 222.087 476.551 222.994 475.433C223.449 474.87 223.98 474.394 224.567 474.021C225.031 473.686 225.554 473.471 226.1 473.392C226.497 473.333 226.901 473.402 227.266 473.592C227.578 473.763 227.838 474.035 228.012 474.374C228.187 474.715 228.285 475.1 228.296 475.494C228.305 475.612 228.282 475.73 228.229 475.831C228.183 475.934 228.112 476.019 228.025 476.077L226.452 477.074C226.33 477.151 226.235 477.166 226.167 477.074L225.964 476.875C225.839 476.728 225.679 476.626 225.503 476.583C225.168 476.551 224.835 476.66 224.567 476.89Z" fill="white"/>
<path d="M260.42 384.052C259.976 383.799 259.486 383.667 258.989 383.667C258.492 383.667 258.002 383.799 257.559 384.052L213.421 412.891C212.991 413.207 212.634 413.632 212.377 414.133C212.12 414.634 211.971 415.197 211.943 415.775V426.943C211.901 427.522 212.005 428.103 212.243 428.618C212.481 429.132 212.843 429.56 213.288 429.851C213.733 430.142 214.241 430.284 214.754 430.261C215.268 430.237 215.764 430.05 216.187 429.719L260.352 400.957C260.781 400.637 261.138 400.209 261.395 399.705C261.651 399.202 261.8 398.638 261.83 398.058V386.89C261.809 386.325 261.671 385.773 261.426 385.28C261.181 384.787 260.836 384.366 260.42 384.052Z" fill="#263238"/>
<path d="M261.789 386.568C261.667 385.724 261.057 385.433 260.325 385.908L241.924 397.935L216.16 414.732C215.727 415.049 215.368 415.481 215.116 415.99L212.404 414.18C212.653 413.668 213.012 413.235 213.448 412.922L257.586 384.098C257.989 383.79 258.459 383.609 258.945 383.577C259.431 383.544 259.916 383.66 260.349 383.913C260.782 384.166 261.146 384.546 261.405 385.013C261.663 385.48 261.805 386.017 261.816 386.568H261.789Z" fill="#455A64"/>
<path d="M214.709 417.647V428.814C214.709 429.888 215.373 430.348 216.187 429.781L260.352 400.957C260.781 400.637 261.138 400.209 261.395 399.705C261.651 399.202 261.8 398.638 261.83 398.058V386.89C261.83 385.832 261.166 385.356 260.352 385.924L216.214 414.763C215.78 415.075 215.417 415.499 215.155 416C214.893 416.501 214.74 417.066 214.709 417.647Z" fill="#37474F"/>
<path d="M222.221 414.027L222.94 415.76C222.947 415.786 222.959 415.809 222.975 415.829C222.991 415.849 223.011 415.864 223.033 415.875C223.055 415.885 223.079 415.889 223.102 415.888C223.126 415.887 223.149 415.88 223.17 415.867L224.784 415.177C225.042 415.054 225.137 415.469 224.96 415.867L223.794 418.337C223.719 418.481 223.686 418.647 223.699 418.813L223.97 421.052C223.97 421.405 223.753 421.881 223.523 421.85L222.086 421.651C222.027 421.653 221.969 421.671 221.917 421.703C221.865 421.735 221.821 421.78 221.787 421.835L220.35 423.921C220.119 424.258 219.848 424.136 219.889 423.721L220.174 421.114C220.187 421.051 220.185 420.985 220.168 420.923C220.151 420.861 220.121 420.805 220.079 420.761L218.913 419.81C218.723 419.656 218.831 419.119 219.089 418.889L220.702 417.478C220.815 417.376 220.895 417.237 220.933 417.079L221.652 414.395C221.774 413.981 222.099 413.766 222.221 414.027Z" fill="#81B29A"/>
<path d="M230.371 408.75L231.103 410.483C231.121 410.532 231.155 410.571 231.199 410.591C231.242 410.611 231.29 410.611 231.333 410.59L232.947 409.885C233.205 409.777 233.3 410.176 233.123 410.575L231.957 413.045C231.884 413.189 231.851 413.355 231.862 413.52L232.133 415.775C232.133 416.128 231.916 416.588 231.686 416.558L230.249 416.358C230.188 416.36 230.129 416.379 230.076 416.414C230.024 416.449 229.981 416.498 229.95 416.558L228.513 418.629C228.282 418.966 228.011 418.843 228.052 418.429L228.337 415.837C228.347 415.771 228.344 415.704 228.328 415.64C228.311 415.576 228.282 415.517 228.242 415.469L227.076 414.518C226.886 414.364 226.994 413.827 227.252 413.612L228.865 412.201C228.976 412.091 229.056 411.947 229.096 411.787L229.815 409.118C229.937 408.688 230.262 408.474 230.371 408.75Z" fill="#81B29A"/>
<path d="M238.534 403.442L239.266 405.175C239.273 405.201 239.285 405.225 239.301 405.244C239.317 405.264 239.337 405.28 239.359 405.29C239.381 405.3 239.405 405.305 239.429 405.304C239.452 405.302 239.475 405.295 239.497 405.283L241.11 404.577C241.368 404.47 241.463 404.884 241.286 405.267L240.107 407.753C240.042 407.9 240.014 408.064 240.025 408.228L240.297 410.468C240.297 410.821 240.08 411.296 239.849 411.265L238.398 411.066C238.341 411.067 238.285 411.084 238.235 411.116C238.185 411.149 238.143 411.195 238.113 411.25L236.676 413.336C236.446 413.658 236.174 413.551 236.215 413.137L236.5 410.529C236.51 410.466 236.507 410.401 236.491 410.34C236.474 410.278 236.445 410.222 236.405 410.176L235.239 409.225C235.049 409.072 235.157 408.535 235.415 408.305L237.029 406.894C237.15 406.798 237.244 406.665 237.3 406.51L238.018 403.841C238.1 403.442 238.425 403.181 238.534 403.442Z" fill="#81B29A"/>
<path d="M246.697 398.18L247.416 399.914C247.426 399.939 247.44 399.961 247.458 399.979C247.476 399.997 247.497 400.011 247.52 400.02C247.543 400.028 247.567 400.032 247.591 400.029C247.615 400.027 247.638 400.019 247.66 400.006L249.273 399.316C249.531 399.208 249.626 399.607 249.436 400.006L248.27 402.476C248.199 402.62 248.17 402.787 248.188 402.951L248.46 405.191C248.46 405.559 248.243 406.019 248.012 405.988L246.561 405.789C246.504 405.793 246.449 405.811 246.4 405.843C246.35 405.875 246.308 405.919 246.276 405.973L244.839 408.044C244.609 408.382 244.337 408.259 244.378 407.845L244.649 405.252C244.665 405.188 244.666 405.12 244.652 405.056C244.637 404.991 244.609 404.932 244.568 404.884L243.402 403.933C243.212 403.78 243.32 403.243 243.578 403.013L245.178 401.617C245.292 401.507 245.377 401.364 245.422 401.202L246.141 398.533C246.249 398.119 246.588 397.904 246.697 398.18Z" fill="#81B29A"/>
<path d="M254.928 392.888L255.647 394.622C255.667 394.671 255.704 394.71 255.75 394.73C255.795 394.75 255.846 394.75 255.891 394.729L257.504 394.023C257.748 393.916 257.857 394.33 257.667 394.714L256.501 397.199C256.429 397.343 256.4 397.51 256.419 397.674L256.691 399.914C256.691 400.267 256.46 400.742 256.243 400.696L254.792 400.497C254.734 400.501 254.677 400.521 254.628 400.556C254.578 400.591 254.537 400.639 254.508 400.696L253.057 402.782C252.84 403.105 252.568 402.997 252.609 402.583L252.88 399.975C252.896 399.914 252.897 399.848 252.883 399.786C252.869 399.724 252.84 399.667 252.799 399.622L251.633 398.656C251.443 398.518 251.551 397.966 251.796 397.751L253.409 396.34C253.523 396.23 253.608 396.087 253.653 395.925L254.372 393.256C254.413 392.827 254.752 392.612 254.928 392.888Z" fill="#81B29A"/>
<path d="M259.457 441.639C258.698 441.231 257.865 441.029 257.025 441.047C256.185 441.066 255.361 441.305 254.616 441.746L240.853 450.735C240.124 451.271 239.518 451.993 239.082 452.843C238.646 453.693 238.393 454.647 238.344 455.629V473.607C238.312 474.574 238.514 475.533 238.927 476.379C239.341 477.226 239.951 477.93 240.691 478.414C241.431 478.898 242.275 479.145 243.13 479.128C243.985 479.111 244.82 478.83 245.544 478.317L259.308 469.404C260.036 468.865 260.641 468.14 261.074 467.287C261.508 466.434 261.757 465.478 261.803 464.495V446.394C261.768 445.449 261.538 444.526 261.13 443.7C260.723 442.875 260.15 442.168 259.457 441.639Z" fill="#E0E0E0"/>
<path d="M245.544 453.803L259.308 444.86C260.664 443.955 261.803 444.676 261.803 446.486V464.465C261.757 465.447 261.507 466.403 261.074 467.256C260.64 468.109 260.035 468.835 259.308 469.373L245.544 478.363C244.188 479.268 243.036 478.531 243.036 476.721V458.666C243.086 457.689 243.339 456.74 243.775 455.895C244.211 455.05 244.817 454.333 245.544 453.803Z" fill="white"/>
<path d="M261.776 445.98C261.6 444.446 260.569 443.97 259.308 444.799L245.545 453.788C244.803 454.311 244.192 455.04 243.768 455.905L239.077 452.837C239.5 451.976 240.112 451.253 240.853 450.735L254.616 441.792C255.362 441.354 256.187 441.117 257.027 441.101C257.867 441.085 258.699 441.29 259.457 441.7C260.094 442.182 260.63 442.814 261.03 443.553C261.431 444.292 261.685 445.12 261.776 445.98Z" fill="#E07A5F"/>
<path d="M246.033 463.651C246.048 462.199 246.32 460.765 246.833 459.433C247.291 458.034 248.12 456.829 249.206 455.981C250.833 454.892 252.189 457.101 252.406 459.694C252.609 456.825 253.938 452.837 255.565 451.763C255.92 451.453 256.365 451.308 256.811 451.357C257.257 451.405 257.67 451.644 257.966 452.024C258.567 452.931 258.86 454.052 258.793 455.184C258.793 459.571 256.474 463.559 254.521 467.747L252.406 471.797L250.372 470.508C248.406 468.913 246.06 468.054 246.033 463.651Z" fill="#81B29A"/>
<path d="M380.792 318.244L382.948 343.616L403.003 342.205L401.403 314.071L380.792 318.244Z" fill="#FFA8A7"/>
<path d="M355.747 269.278C355.514 268.048 355.396 266.794 355.394 265.535C355.342 264.036 355.632 262.546 356.235 261.21C357.889 257.927 361.076 257.927 363.978 257.973C369.735 258.165 375.472 257.125 380.887 254.905C383.111 253.954 385.253 252.742 387.491 251.837C393.145 249.536 399.695 249.168 405.037 252.159C406.988 253.235 408.72 254.759 410.121 256.634C411.521 258.509 412.561 260.695 413.173 263.05C413.716 265.29 413.485 267.56 413.865 269.815C414.34 272.576 415.37 275.169 415.818 277.945C416.255 280.939 416.505 283.963 416.563 286.996C416.997 299.529 391.287 307.674 391.789 316.265L378.094 297.397C378.094 296.614 376.155 294.666 375.721 294.006C374.893 292.764 374.161 291.429 373.415 290.125C371.99 287.723 370.144 285.676 367.991 284.112C365.971 282.578 363.666 281.658 361.74 279.986C358.7 277.316 356.58 273.529 355.747 269.278Z" fill="#263238"/>
<path d="M365.917 290.386C365.917 290.386 361.482 297.857 362.066 298.639C363.106 299.409 364.258 299.965 365.469 300.28L365.917 290.386Z" fill="#E07A5F"/>
<path d="M379.49 266.732C375.178 269.217 367.72 273.804 365.795 291.475C363.829 309.638 367.463 316.019 369.686 318.32C371.192 319.854 378.934 320.499 382.989 319.103C388.047 317.369 399.003 311.341 404.142 301.968C410.19 290.954 411.438 276.258 404.454 270.506C394.596 262.406 383.152 264.646 379.49 266.732Z" fill="#FFA8A7"/>
<path d="M370.107 318.643C371.924 319.778 377.077 320.177 380.955 319.609L380.846 316.341C379.196 317.157 377.479 317.789 375.721 318.228C373.879 318.686 371.986 318.826 370.107 318.643Z" fill="#E07A5F"/>
<path d="M377.592 266.195C375.766 266.958 374.069 268.068 372.574 269.478C371.825 270.182 371.22 271.061 370.798 272.055C370.46 272.981 370.335 273.989 370.432 274.985C370.564 276.346 371.009 277.645 371.723 278.751C372.437 279.857 373.394 280.732 374.5 281.29C373.925 282.191 373.53 283.223 373.343 284.315C373.156 285.406 373.18 286.53 373.415 287.61C374.207 290.112 375.568 292.334 377.361 294.052C377.452 294.174 377.569 294.269 377.7 294.329C377.826 294.344 377.954 294.33 378.075 294.288C378.196 294.246 378.308 294.176 378.405 294.083C381.117 292.028 382.785 288.484 386.622 289.911C391.653 291.782 391.924 297.305 388.955 302.183C388.457 303.145 387.779 303.974 386.968 304.609C386.158 305.245 385.235 305.674 384.263 305.864C383.705 305.974 383.133 305.939 382.588 305.764C382.043 305.589 381.541 305.277 381.117 304.852C381.117 304.852 381.958 315.344 388.995 318.98C388.995 318.98 397.254 321.097 401.647 317.86C404.291 314.056 408.752 309.178 412.414 304.821C424.482 290.463 425.174 269.616 407.369 263.035C406.759 262.805 406.135 262.59 405.512 262.406C396.902 259.894 387.787 260.871 379.748 265.167C378.961 265.551 378.324 265.873 377.592 266.195Z" fill="#263238"/>
<path d="M376.968 300.449C376.503 300.267 376.075 299.982 375.708 299.611C375.341 299.24 375.043 298.79 374.831 298.288C374.619 297.786 374.498 297.241 374.473 296.685C374.449 296.129 374.523 295.573 374.69 295.05C375.047 293.99 375.756 293.13 376.665 292.655C377.575 292.179 378.613 292.124 379.558 292.503L376.968 300.449Z" fill="#263238"/>
<path d="M412.604 267.407C412.949 267.705 413.343 267.923 413.763 268.047C414.183 268.171 414.621 268.2 415.051 268.132C415.482 268.063 415.895 267.899 416.269 267.648C416.643 267.397 416.968 267.065 417.227 266.671C417.746 265.86 417.963 264.851 417.831 263.861C417.699 262.872 417.229 261.98 416.522 261.378L412.604 267.407Z" fill="#263238"/>
<path d="M405.173 331.037C420.211 331.988 421.54 334.841 426.001 347.129C430.462 359.416 437.513 390.572 439.344 398.84C440.171 402.522 415.478 437.435 416.373 436.945C416.645 436.791 408.332 421.068 408.332 421.068L419.424 397.597L412.807 377.655L405.173 331.037Z" fill="#FFA8A7"/>
<path d="M420.021 439.583C419.247 431.974 417.243 424.59 414.109 417.8L389.986 466.689L385.769 483.962C385.769 483.962 386.053 523.539 386.596 533.05C387.138 542.56 392.752 619.537 392.752 619.537L393.769 634.739C403.261 637.73 405.281 634.892 405.376 632.545C405.471 630.198 406.515 620.81 406.515 620.81C406.515 620.81 408.712 619.874 409.227 615.855C409.512 613.707 407.532 609.075 407.871 605.761C409.661 588.688 413.933 562.687 414.19 557.179C414.614 547.581 413.141 537.996 409.878 529.123C411.79 509.288 422.76 466.336 420.021 439.583Z" fill="#FFA8A7"/>
<path d="M392.752 619.506L393.769 634.708C403.261 637.699 405.281 634.861 405.376 632.514C405.376 631.977 405.471 631.057 405.566 629.968C404.034 633.864 400.888 632.729 399.084 627.176C397.281 621.623 389.402 573.24 389.402 573.24C391.03 595.913 392.752 619.506 392.752 619.506Z" fill="#E07A5F"/>
<path d="M387.165 655.325C387.165 655.325 388.616 658.193 396.454 654.466C404.291 650.738 406.502 646.305 406.502 646.305C406.502 646.305 404.468 628.495 399.613 632.974C394.759 637.454 387.165 655.325 387.165 655.325Z" fill="#81B29A"/>
<path opacity="0.3" d="M387.165 655.325C387.165 655.325 388.616 658.193 396.454 654.466C404.291 650.738 406.502 646.305 406.502 646.305C406.502 646.305 404.468 628.495 399.613 632.974C394.759 637.454 387.165 655.325 387.165 655.325Z" fill="black"/>
<path d="M408.319 611.376C406.719 610.409 402.461 612.403 399.952 614.858C396.657 618.064 395.884 622.405 394.176 627.513C392.372 632.959 389.104 640.445 386.46 642.117C383.816 643.789 378.988 642.24 375.002 642.209C371.015 642.178 367.937 644.249 367.706 647.547C367.598 650.125 377.958 656.077 384.507 656.383C389.931 656.629 391.789 657.672 394.786 648.713C397.783 639.755 398.935 634.662 401.322 640.767C403.708 646.872 404.698 660.709 404.698 660.709C405.609 661.086 406.613 661.06 407.508 660.636C408.403 660.213 409.123 659.422 409.526 658.424C409.488 654.409 409.687 650.397 410.122 646.412C410.8 640.89 413.404 632.192 413.065 625.535C412.726 618.877 409.905 612.265 408.319 611.376Z" fill="#263238"/>
<path d="M411.315 419.825L354.472 439.414C354.472 439.414 348.777 509.411 348.926 530.733C349.021 545.751 349.726 547.255 351.936 552.93C354.553 559.603 356.831 566.46 359.177 573.256C362.825 583.794 377.293 623.249 376.805 628.618C376.507 632.33 372.941 642.547 371.123 649.143C369.306 655.739 364.655 655.954 364.655 655.954C364.655 655.954 372.005 661.676 376.398 660.464C379.666 659.574 380.656 654.895 381.822 651.873C383.474 647.856 386.3 644.605 389.823 642.669C391.28 641.848 392.68 640.905 394.013 639.847C395.348 638.765 396.334 637.219 396.82 635.444C397.443 632.729 396.372 629.937 395.328 627.391L393.552 623.111C392.652 620.923 392.005 618.613 391.626 616.238C390.582 609.688 389.741 603.077 388.819 596.496C387.748 588.826 386.677 581.003 385.497 573.286C384.921 568.217 384.015 563.202 382.785 558.284C380.741 551.949 378.075 545.893 374.839 540.229L389.999 466.704C408.305 460.568 414.285 451.702 416.4 439.092C418.122 428.722 414.732 426.145 411.315 419.825Z" fill="#FFA8A7"/>
<path d="M354.147 560.493C348.099 546.15 346.445 537.483 348.926 507.355C351.408 477.227 354.147 438.402 354.147 438.402L414.936 416.558C419.398 428.446 422.693 444.998 422.042 458.789C421.391 472.579 411.804 528.064 411.804 528.064C412.956 533.485 413.861 538.968 414.516 544.493C415.039 549.939 415.13 555.427 414.787 560.892C414.38 567.979 410.882 587.261 410.882 587.261C407.908 588.92 404.575 589.575 401.281 589.148C397.307 588.602 393.451 587.262 389.891 585.19C389.891 585.19 388.223 560.969 387.559 555.523C386.894 550.077 386.203 540.505 385.837 533.403C385.375 524.199 385.837 490.451 385.837 490.451L376.1 538.956L380.453 547.868C384.196 556.136 387.382 575.557 388.589 589.455C388.589 589.455 385.877 592.891 379.274 594.962C375.175 596.046 370.958 596.439 366.758 596.128C366.758 596.128 356.777 567.243 354.147 560.493Z" fill="#37474F"/>
<path d="M385.768 490.404L390.419 468.928C390.419 468.928 406.339 466.627 414.719 454.049C414.719 454.049 409.295 471.015 394.216 472.227L387.151 490.144L385.619 505.591L385.768 490.404Z" fill="#263238"/>
<path d="M373.47 668.41C373.47 668.41 374.921 671.294 382.758 667.566C390.596 663.839 392.806 659.405 392.806 659.405C392.806 659.405 390.772 641.596 385.918 646.075C381.063 650.554 373.47 668.41 373.47 668.41Z" fill="#81B29A"/>
<path opacity="0.3" d="M373.47 668.41C373.47 668.41 374.921 671.294 382.758 667.566C390.596 663.839 392.806 659.405 392.806 659.405C392.806 659.405 390.772 641.596 385.918 646.075C381.063 650.554 373.47 668.41 373.47 668.41Z" fill="black"/>
<path d="M394.596 624.461C392.996 623.51 388.724 625.504 386.216 627.943C382.921 631.164 382.148 635.506 380.439 640.598C378.636 646.044 375.368 653.53 372.724 655.202C370.079 656.874 365.252 655.325 361.265 655.309C357.279 655.294 354.201 657.35 353.97 660.632C353.862 663.225 364.221 669.177 370.771 669.468C376.195 669.729 378.053 670.772 381.063 661.798C384.073 652.824 385.199 647.732 387.585 653.852C389.972 659.973 390.962 673.794 390.962 673.794C391.875 674.165 392.878 674.135 393.774 673.713C394.669 673.29 395.393 672.504 395.803 671.509C395.757 667.494 395.952 663.482 396.386 659.497C397.064 653.96 399.667 645.262 399.328 638.604C398.989 631.947 396.21 625.366 394.596 624.461Z" fill="#263238"/>
<path d="M416.848 340.456C415.262 333.982 413.051 331.037 405.919 331.083L402.353 330.838C401.919 333.906 387.22 334.857 381.823 330.362C380.304 330.286 374.894 330.7 371.788 331.037L370.853 333.829C368.141 337.557 358.364 343.723 351.109 367.132C350.249 370.538 350.431 374.172 351.625 377.446C352.818 380.72 354.954 383.442 357.686 385.172C357.496 390.357 357.889 390.265 361.645 407.108L354.296 433.877C354.296 433.877 368.086 443.341 390.677 441.362C410.882 439.598 420.414 426.774 419.642 428.446C419.642 428.446 416.157 421.068 409.648 403.979L411.139 396.447L413.499 384.911C419.14 360.398 419.004 349.077 416.848 340.456Z" fill="#455A64"/>
<path d="M411.356 402.66C406.583 410.33 376.995 418.859 361.455 407.338C361.455 407.338 336.776 447.452 332.803 483.455C332.803 483.455 352.397 510.423 397.634 504.118C430.639 499.516 441.866 476.246 441.866 476.246C439.225 459.721 434.253 443.784 427.14 429.044C422.95 420.485 413.417 410.59 411.356 402.66Z" fill="#81B29A"/>
<path opacity="0.1" d="M411.356 402.66C406.583 410.33 376.995 418.859 361.455 407.338C361.455 407.338 336.776 447.452 332.803 483.455C332.803 483.455 352.397 510.423 397.634 504.118C430.639 499.516 441.866 476.246 441.866 476.246C439.225 459.721 434.253 443.784 427.14 429.044C422.95 420.485 413.417 410.59 411.356 402.66Z" fill="black"/>
<path d="M419.655 499.516L416.563 498.719C416.563 498.719 413.512 451.165 396.223 409.578L398.379 408.98C398.379 408.98 411.153 435.15 417.77 460.476C424.387 485.802 419.655 499.516 419.655 499.516Z" fill="#81B29A"/>
<path opacity="0.2" d="M419.655 499.516L416.563 498.719C416.563 498.719 413.512 451.165 396.223 409.578L398.379 408.98C398.379 408.98 411.153 435.15 417.77 460.476C424.387 485.802 419.655 499.516 419.655 499.516Z" fill="black"/>
<path d="M367.937 507.631L370.256 503.888C370.256 503.888 369.51 437.282 375.137 411.311L373.646 411.127C373.646 411.127 363.503 447.376 367.937 507.631Z" fill="#81B29A"/>
<path opacity="0.2" d="M367.937 507.631L370.256 503.888C370.256 503.888 369.51 437.282 375.137 411.311L373.646 411.127C373.646 411.127 363.503 447.376 367.937 507.631Z" fill="black"/>
<path d="M367.869 503.428C367.869 506.113 367.869 507.631 367.869 507.631C344.533 504.563 340.153 495.145 340.153 495.145C340.356 493.841 340.546 492.537 340.749 491.217C347.76 446.962 365.754 409.118 365.754 409.118C368.295 410.085 370.917 410.758 373.578 411.127C367.544 432.45 367.693 487.812 367.869 503.428Z" fill="#81B29A"/>
<path opacity="0.3" d="M367.869 503.428C367.869 506.113 367.869 507.631 367.869 507.631C344.533 504.563 340.153 495.145 340.153 495.145C340.356 493.841 340.546 492.537 340.749 491.217C347.76 446.962 365.754 409.118 365.754 409.118C368.295 410.085 370.917 410.758 373.578 411.127C367.544 432.45 367.693 487.812 367.869 503.428Z" fill="#81B29A"/>
<path d="M405.593 504.441C392.223 511.313 378.012 508.045 378.012 508.045C378.012 506.972 377.931 505.898 377.904 504.839C376.548 462.363 381.972 420.469 383.138 411.557C385.488 411.455 387.832 411.22 390.162 410.851C401.118 444.016 404.807 492.537 405.485 502.584C405.552 503.796 405.593 504.441 405.593 504.441Z" fill="#81B29A"/>
<path d="M437.988 485.987C430.571 495.052 419.614 499.516 419.614 499.516C419.614 498.765 419.546 497.982 419.519 497.261C417.512 459.31 400.427 414.318 398.366 408.98C400.611 408.318 402.812 407.483 404.956 406.479C423.94 423.353 434.788 470.294 437.364 482.857C437.812 484.867 437.988 485.987 437.988 485.987Z" fill="#81B29A"/>
<path d="M359.991 399.822C360.411 402.23 360.899 405.758 361.347 407.492C361.347 407.492 370.445 413.628 385.85 412.891C401.254 412.155 409.769 407.737 411.329 402.706L411.112 396.493C403.912 406.372 376.439 411.112 359.991 399.822Z" fill="#37474F"/>
<path d="M314.592 368.912C311.798 365.291 311.324 357.299 307.595 351.792C303.866 346.285 304.544 340.747 302.171 343.217C299.798 345.687 301.574 354.707 301.574 354.707C301.574 354.707 297.235 363.819 296.869 368.513C296.503 373.207 307.419 384.896 307.419 384.896L314.592 368.912Z" fill="#FFA8A7"/>
<path d="M302.239 354.078C300.151 357.514 293.262 351.884 291.391 350.304C290.274 349.214 288.999 348.353 287.621 347.758C286.931 347.473 286.184 347.412 285.465 347.583C284.746 347.754 284.084 348.149 283.553 348.724C283.014 349.506 282.672 350.439 282.563 351.424C282.073 354.515 282.183 357.69 282.886 360.728C283.588 363.766 284.866 366.595 286.631 369.019C290.862 374.879 297.75 375.707 303.147 379.834C302.962 378.525 302.921 377.196 303.025 375.876C302.93 372.946 302.822 370.016 302.713 367.086C302.564 362.745 302.388 358.404 302.239 354.078Z" fill="#FFA8A7"/>
<path d="M371.788 331.037C362.988 330.347 354.893 331.82 349.252 344.705C342.811 359.386 330.051 387.795 330.051 387.795L314.592 368.912C314.592 368.912 312.355 365.337 308.178 373.13C304.002 380.923 305.846 383.101 305.846 383.101C305.846 383.101 323.786 410.284 327.081 413.781C330.376 417.279 335.787 414.548 339.285 409.179C342.783 403.81 362.134 366.074 362.134 366.074C362.134 366.074 376.005 346.776 371.788 331.037Z" fill="#FFA8A7"/>
<path d="M346.594 416.803L342.146 413.904C342.107 411.082 341.853 408.27 341.387 405.498C342.268 403.872 343.339 401.847 344.492 399.592C345.889 405.192 346.596 410.984 346.594 416.803Z" fill="#263238"/>
<path d="M346.77 418.414L346.593 416.803L346.444 416.911V416.803L342.01 413.904C341.427 415.775 340.749 418.322 340.03 421.16C330.864 427.127 315.487 437.19 315.487 437.19L320.206 477.611L351.041 457.362C351.659 456.97 352.116 456.321 352.316 455.552C353.618 451.288 348.207 425.179 346.77 418.414Z" fill="#37474F"/>
<path d="M346.593 416.803L315.487 437.113L311.039 434.214L342.146 413.904L346.593 416.803Z" fill="#455A64"/>
<path opacity="0.1" d="M346.593 416.803L315.487 437.113L311.039 434.214L342.146 413.904L346.593 416.803Z" fill="white"/>
<path opacity="0.2" d="M317.304 445.826C317.304 445.826 317.114 446.762 320.138 447.498C323.162 448.235 335.719 448.051 337.386 446.931C339.054 445.811 343.488 439.644 345.522 435.503C346.755 432.957 347.807 430.305 348.668 427.572L317.304 445.826Z" fill="black"/>
<path d="M311.039 434.214C308.463 442.682 303.527 464.418 304.259 467.671C304.992 470.923 308.788 473.392 311.039 474.85C313.29 476.307 319.88 480.618 321.386 475.801C322.891 470.984 315.487 437.19 315.487 437.19L311.039 434.214Z" fill="#263238"/>
<path d="M315.487 437.19C315.487 437.696 316.151 443.878 317.304 445.903C318.456 447.928 333.711 446.731 336.288 445.903C338.864 445.075 348.275 429.996 348.6 427.649C348.926 425.302 346.553 416.911 346.553 416.911L315.487 437.19Z" fill="#455A64"/>
<path d="M335.745 442.697C335.813 443.449 336.315 443.694 336.857 443.234C337.139 442.971 337.362 442.637 337.508 442.259C337.654 441.88 337.719 441.468 337.698 441.056C337.617 440.304 337.129 440.059 336.586 440.519C336.302 440.779 336.077 441.113 335.931 441.492C335.784 441.871 335.721 442.284 335.745 442.697Z" fill="#81B29A"/>
<path d="M331.555 384.436C315.283 387.626 311.039 434.214 311.039 434.214L315.487 437.113C316.287 409.578 326.538 390.188 330.145 387.78L331.555 384.436Z" fill="#263238"/>
</svg>
